<?xml version="1.0" encoding="utf-8" standalone="no"?>
<!DOCTYPE svg PUBLIC "-//W3C//DTD SVG 1.1//EN"
  "http://www.w3.org/Graphics/SVG/1.1/DTD/svg11.dtd">
<!-- Created with matplotlib (http://matplotlib.org/) -->
<svg height="396pt" version="1.1" viewBox="0 0 576 396" width="576pt" xmlns="http://www.w3.org/2000/svg" xmlns:xlink="http://www.w3.org/1999/xlink">
 <defs>
  <style type="text/css">
*{stroke-linecap:butt;stroke-linejoin:round;}
  </style>
 </defs>
 <g id="figure_1">
  <g id="patch_1">
   <path d="
M0 396
L576 396
L576 0
L0 0
z
" style="fill:#ffffff;"/>
  </g>
  <g id="axes_1">
   <g id="patch_2">
    <path d="
M72 356.4
L518.4 356.4
L518.4 39.6
L72 39.6
z
" style="fill:#eaeaf2;"/>
   </g>
   <g id="matplotlib.axis_1">
    <g id="xtick_1">
     <g id="line2d_1">
      <path clip-path="url(#p3d386a08f4)" d="
M72 356.4
L72 39.6" style="fill:none;stroke:#ffffff;stroke-linecap:round;"/>
     </g>
     <g id="line2d_2">
      <defs>
       <path d="
M0 0
L0 0" id="m219da94a98" style="stroke:#262626;"/>
      </defs>
      <g>
       <use style="fill:#262626;stroke:#262626;" x="72.0" xlink:href="#m219da94a98" y="356.4"/>
      </g>
     </g>
     <g id="line2d_3">
      <g>
       <use style="fill:#262626;stroke:#262626;" x="72.0" xlink:href="#m219da94a98" y="39.6"/>
      </g>
     </g>
     <g id="text_1">
      <!-- 80 -->
      <defs>
       <path d="
M17.6719 38.8125
Q12.2031 40.8281 9.5625 44.5312
Q6.9375 48.25 6.9375 53.4219
Q6.9375 61.2344 12.5469 66.5469
Q18.1719 71.875 27.4844 71.875
Q36.8594 71.875 42.5781 66.4219
Q48.2969 60.9844 48.2969 53.1719
Q48.2969 48.1875 45.6719 44.5
Q43.0625 40.8281 37.75 38.8125
Q44.3438 36.6719 47.7812 31.875
Q51.2188 27.0938 51.2188 20.4531
Q51.2188 11.2812 44.7188 5.03125
Q38.2344 -1.21875 27.6406 -1.21875
Q17.0469 -1.21875 10.5469 5.04688
Q4.04688 11.3281 4.04688 20.7031
Q4.04688 27.6875 7.59375 32.3906
Q11.1406 37.1094 17.6719 38.8125
M15.9219 53.7188
Q15.9219 48.6406 19.1875 45.4062
Q22.4688 42.1875 27.6875 42.1875
Q32.7656 42.1875 36.0156 45.375
Q39.2656 48.5781 39.2656 53.2188
Q39.2656 58.0625 35.9062 61.3594
Q32.5625 64.6562 27.5938 64.6562
Q22.5625 64.6562 19.2344 61.4219
Q15.9219 58.2031 15.9219 53.7188
M13.0938 20.6562
Q13.0938 16.8906 14.875 13.375
Q16.6562 9.85938 20.1719 7.92188
Q23.6875 6 27.7344 6
Q34.0312 6 38.125 10.0469
Q42.2344 14.1094 42.2344 20.3594
Q42.2344 26.7031 38.0156 30.8594
Q33.7969 35.0156 27.4375 35.0156
Q21.2344 35.0156 17.1562 30.9062
Q13.0938 26.8125 13.0938 20.6562" id="ArialMT-38"/>
       <path d="
M4.15625 35.2969
Q4.15625 48 6.76562 55.7344
Q9.375 63.4844 14.5156 67.6719
Q19.6719 71.875 27.4844 71.875
Q33.25 71.875 37.5938 69.5469
Q41.9375 67.2344 44.7656 62.8594
Q47.6094 58.5 49.2188 52.2188
Q50.8281 45.9531 50.8281 35.2969
Q50.8281 22.7031 48.2344 14.9688
Q45.6562 7.23438 40.5 3
Q35.3594 -1.21875 27.4844 -1.21875
Q17.1406 -1.21875 11.2344 6.20312
Q4.15625 15.1406 4.15625 35.2969
M13.1875 35.2969
Q13.1875 17.6719 17.3125 11.8281
Q21.4375 6 27.4844 6
Q33.5469 6 37.6719 11.8594
Q41.7969 17.7188 41.7969 35.2969
Q41.7969 52.9844 37.6719 58.7812
Q33.5469 64.5938 27.3906 64.5938
Q21.3438 64.5938 17.7188 59.4688
Q13.1875 52.9375 13.1875 35.2969" id="ArialMT-30"/>
      </defs>
      <g style="fill:#262626;" transform="translate(66.88046875 370.5578125)scale(0.1 -0.1)">
       <use xlink:href="#ArialMT-38"/>
       <use x="55.615234375" xlink:href="#ArialMT-30"/>
      </g>
     </g>
    </g>
    <g id="xtick_2">
     <g id="line2d_4">
      <path clip-path="url(#p3d386a08f4)" d="
M183.6 356.4
L183.6 39.6" style="fill:none;stroke:#ffffff;stroke-linecap:round;"/>
     </g>
     <g id="line2d_5">
      <g>
       <use style="fill:#262626;stroke:#262626;" x="183.6" xlink:href="#m219da94a98" y="356.4"/>
      </g>
     </g>
     <g id="line2d_6">
      <g>
       <use style="fill:#262626;stroke:#262626;" x="183.6" xlink:href="#m219da94a98" y="39.6"/>
      </g>
     </g>
     <g id="text_2">
      <!-- 85 -->
      <defs>
       <path d="
M4.15625 18.75
L13.375 19.5312
Q14.4062 12.7969 18.1406 9.39062
Q21.875 6 27.1562 6
Q33.5 6 37.8906 10.7812
Q42.2812 15.5781 42.2812 23.4844
Q42.2812 31 38.0625 35.3438
Q33.8438 39.7031 27 39.7031
Q22.75 39.7031 19.3281 37.7656
Q15.9219 35.8438 13.9688 32.7656
L5.71875 33.8438
L12.6406 70.6094
L48.25 70.6094
L48.25 62.2031
L19.6719 62.2031
L15.8281 42.9688
Q22.2656 47.4688 29.3438 47.4688
Q38.7188 47.4688 45.1562 40.9688
Q51.6094 34.4688 51.6094 24.2656
Q51.6094 14.5469 45.9531 7.46875
Q39.0625 -1.21875 27.1562 -1.21875
Q17.3906 -1.21875 11.2031 4.25
Q5.03125 9.71875 4.15625 18.75" id="ArialMT-35"/>
      </defs>
      <g style="fill:#262626;" transform="translate(178.44140625 370.5578125)scale(0.1 -0.1)">
       <use xlink:href="#ArialMT-38"/>
       <use x="55.615234375" xlink:href="#ArialMT-35"/>
      </g>
     </g>
    </g>
    <g id="xtick_3">
     <g id="line2d_7">
      <path clip-path="url(#p3d386a08f4)" d="
M295.2 356.4
L295.2 39.6" style="fill:none;stroke:#ffffff;stroke-linecap:round;"/>
     </g>
     <g id="line2d_8">
      <g>
       <use style="fill:#262626;stroke:#262626;" x="295.2" xlink:href="#m219da94a98" y="356.4"/>
      </g>
     </g>
     <g id="line2d_9">
      <g>
       <use style="fill:#262626;stroke:#262626;" x="295.2" xlink:href="#m219da94a98" y="39.6"/>
      </g>
     </g>
     <g id="text_3">
      <!-- 90 -->
      <defs>
       <path d="
M5.46875 16.5469
L13.9219 17.3281
Q14.9844 11.375 18.0156 8.6875
Q21.0469 6 25.7812 6
Q29.8281 6 32.875 7.85938
Q35.9375 9.71875 37.8906 12.8125
Q39.8438 15.9219 41.1562 21.1875
Q42.4844 26.4688 42.4844 31.9375
Q42.4844 32.5156 42.4375 33.6875
Q39.7969 29.5 35.2344 26.875
Q30.6719 24.2656 25.3438 24.2656
Q16.4531 24.2656 10.2969 30.7031
Q4.15625 37.1562 4.15625 47.7031
Q4.15625 58.5938 10.5781 65.2344
Q17 71.875 26.6562 71.875
Q33.6406 71.875 39.4219 68.1094
Q45.2188 64.3594 48.2188 57.3906
Q51.2188 50.4375 51.2188 37.25
Q51.2188 23.5312 48.2344 15.4062
Q45.2656 7.28125 39.375 3.03125
Q33.5 -1.21875 25.5938 -1.21875
Q17.1875 -1.21875 11.8594 3.4375
Q6.54688 8.10938 5.46875 16.5469
M41.4531 48.1406
Q41.4531 55.7188 37.4219 60.1562
Q33.4062 64.5938 27.7344 64.5938
Q21.875 64.5938 17.5312 59.8125
Q13.1875 55.0312 13.1875 47.4062
Q13.1875 40.5781 17.3125 36.2969
Q21.4375 32.0312 27.4844 32.0312
Q33.5938 32.0312 37.5156 36.2969
Q41.4531 40.5781 41.4531 48.1406" id="ArialMT-39"/>
      </defs>
      <g style="fill:#262626;" transform="translate(290.0859375 370.5578125)scale(0.1 -0.1)">
       <use xlink:href="#ArialMT-39"/>
       <use x="55.615234375" xlink:href="#ArialMT-30"/>
      </g>
     </g>
    </g>
    <g id="xtick_4">
     <g id="line2d_10">
      <path clip-path="url(#p3d386a08f4)" d="
M406.8 356.4
L406.8 39.6" style="fill:none;stroke:#ffffff;stroke-linecap:round;"/>
     </g>
     <g id="line2d_11">
      <g>
       <use style="fill:#262626;stroke:#262626;" x="406.8" xlink:href="#m219da94a98" y="356.4"/>
      </g>
     </g>
     <g id="line2d_12">
      <g>
       <use style="fill:#262626;stroke:#262626;" x="406.8" xlink:href="#m219da94a98" y="39.6"/>
      </g>
     </g>
     <g id="text_4">
      <!-- 95 -->
      <g style="fill:#262626;" transform="translate(401.646875 370.5578125)scale(0.1 -0.1)">
       <use xlink:href="#ArialMT-39"/>
       <use x="55.615234375" xlink:href="#ArialMT-35"/>
      </g>
     </g>
    </g>
    <g id="xtick_5">
     <g id="line2d_13">
      <path clip-path="url(#p3d386a08f4)" d="
M518.4 356.4
L518.4 39.6" style="fill:none;stroke:#ffffff;stroke-linecap:round;"/>
     </g>
     <g id="line2d_14">
      <g>
       <use style="fill:#262626;stroke:#262626;" x="518.4" xlink:href="#m219da94a98" y="356.4"/>
      </g>
     </g>
     <g id="line2d_15">
      <g>
       <use style="fill:#262626;stroke:#262626;" x="518.4" xlink:href="#m219da94a98" y="39.6"/>
      </g>
     </g>
     <g id="text_5">
      <!-- 100 -->
      <defs>
       <path d="
M37.25 0
L28.4688 0
L28.4688 56
Q25.2969 52.9844 20.1406 49.9531
Q14.9844 46.9219 10.8906 45.4062
L10.8906 53.9062
Q18.2656 57.375 23.7812 62.2969
Q29.2969 67.2344 31.5938 71.875
L37.25 71.875
z
" id="ArialMT-31"/>
      </defs>
      <g style="fill:#262626;" transform="translate(510.8421875 370.5578125)scale(0.1 -0.1)">
       <use xlink:href="#ArialMT-31"/>
       <use x="55.615234375" xlink:href="#ArialMT-30"/>
       <use x="111.23046875" xlink:href="#ArialMT-30"/>
      </g>
     </g>
    </g>
   </g>
   <g id="matplotlib.axis_2">
    <g id="ytick_1">
     <g id="line2d_16">
      <path clip-path="url(#p3d386a08f4)" d="
M72 356.4
L518.4 356.4" style="fill:none;stroke:#ffffff;stroke-linecap:round;"/>
     </g>
     <g id="line2d_17">
      <g>
       <use style="fill:#262626;stroke:#262626;" x="72.0" xlink:href="#m219da94a98" y="356.4"/>
      </g>
     </g>
     <g id="line2d_18">
      <g>
       <use style="fill:#262626;stroke:#262626;" x="518.4" xlink:href="#m219da94a98" y="356.4"/>
      </g>
     </g>
     <g id="text_6">
      <!-- −14 -->
      <defs>
       <path d="
M52.8281 31.2031
L5.5625 31.2031
L5.5625 39.4062
L52.8281 39.4062
z
" id="ArialMT-2212"/>
       <path d="
M32.3281 0
L32.3281 17.1406
L1.26562 17.1406
L1.26562 25.2031
L33.9375 71.5781
L41.1094 71.5781
L41.1094 25.2031
L50.7812 25.2031
L50.7812 17.1406
L41.1094 17.1406
L41.1094 0
z

M32.3281 25.2031
L32.3281 57.4688
L9.90625 25.2031
z
" id="ArialMT-34"/>
      </defs>
      <g style="fill:#262626;" transform="translate(49.0765625 358.98515625)scale(0.1 -0.1)">
       <use xlink:href="#ArialMT-2212"/>
       <use x="58.3984375" xlink:href="#ArialMT-31"/>
       <use x="114.013671875" xlink:href="#ArialMT-34"/>
      </g>
     </g>
    </g>
    <g id="ytick_2">
     <g id="line2d_19">
      <path clip-path="url(#p3d386a08f4)" d="
M72 321.2
L518.4 321.2" style="fill:none;stroke:#ffffff;stroke-linecap:round;"/>
     </g>
     <g id="line2d_20">
      <g>
       <use style="fill:#262626;stroke:#262626;" x="72.0" xlink:href="#m219da94a98" y="321.2"/>
      </g>
     </g>
     <g id="line2d_21">
      <g>
       <use style="fill:#262626;stroke:#262626;" x="518.4" xlink:href="#m219da94a98" y="321.2"/>
      </g>
     </g>
     <g id="text_7">
      <!-- −12 -->
      <defs>
       <path d="
M50.3438 8.45312
L50.3438 0
L3.03125 0
Q2.9375 3.17188 4.04688 6.10938
Q5.85938 10.9375 9.82812 15.625
Q13.8125 20.3125 21.3438 26.4688
Q33.0156 36.0312 37.1094 41.625
Q41.2188 47.2188 41.2188 52.2031
Q41.2188 57.4219 37.4688 61
Q33.7344 64.5938 27.7344 64.5938
Q21.3906 64.5938 17.5781 60.7812
Q13.7656 56.9844 13.7188 50.25
L4.6875 51.1719
Q5.60938 61.2812 11.6562 66.5781
Q17.7188 71.875 27.9375 71.875
Q38.2344 71.875 44.2344 66.1562
Q50.25 60.4531 50.25 52
Q50.25 47.7031 48.4844 43.5469
Q46.7344 39.4062 42.6562 34.8125
Q38.5781 30.2188 29.1094 22.2188
Q21.1875 15.5781 18.9375 13.2031
Q16.7031 10.8438 15.2344 8.45312
z
" id="ArialMT-32"/>
      </defs>
      <g style="fill:#262626;" transform="translate(49.1203125 323.78515625)scale(0.1 -0.1)">
       <use xlink:href="#ArialMT-2212"/>
       <use x="58.3984375" xlink:href="#ArialMT-31"/>
       <use x="114.013671875" xlink:href="#ArialMT-32"/>
      </g>
     </g>
    </g>
    <g id="ytick_3">
     <g id="line2d_22">
      <path clip-path="url(#p3d386a08f4)" d="
M72 286
L518.4 286" style="fill:none;stroke:#ffffff;stroke-linecap:round;"/>
     </g>
     <g id="line2d_23">
      <g>
       <use style="fill:#262626;stroke:#262626;" x="72.0" xlink:href="#m219da94a98" y="286.0"/>
      </g>
     </g>
     <g id="line2d_24">
      <g>
       <use style="fill:#262626;stroke:#262626;" x="518.4" xlink:href="#m219da94a98" y="286.0"/>
      </g>
     </g>
     <g id="text_8">
      <!-- −10 -->
      <g style="fill:#262626;" transform="translate(49.071875 288.58515625)scale(0.1 -0.1)">
       <use xlink:href="#ArialMT-2212"/>
       <use x="58.3984375" xlink:href="#ArialMT-31"/>
       <use x="114.013671875" xlink:href="#ArialMT-30"/>
      </g>
     </g>
    </g>
    <g id="ytick_4">
     <g id="line2d_25">
      <path clip-path="url(#p3d386a08f4)" d="
M72 250.8
L518.4 250.8" style="fill:none;stroke:#ffffff;stroke-linecap:round;"/>
     </g>
     <g id="line2d_26">
      <g>
       <use style="fill:#262626;stroke:#262626;" x="72.0" xlink:href="#m219da94a98" y="250.8"/>
      </g>
     </g>
     <g id="line2d_27">
      <g>
       <use style="fill:#262626;stroke:#262626;" x="518.4" xlink:href="#m219da94a98" y="250.8"/>
      </g>
     </g>
     <g id="text_9">
      <!-- −8 -->
      <g style="fill:#262626;" transform="translate(54.59375 253.38515625)scale(0.1 -0.1)">
       <use xlink:href="#ArialMT-2212"/>
       <use x="58.3984375" xlink:href="#ArialMT-38"/>
      </g>
     </g>
    </g>
    <g id="ytick_5">
     <g id="line2d_28">
      <path clip-path="url(#p3d386a08f4)" d="
M72 215.6
L518.4 215.6" style="fill:none;stroke:#ffffff;stroke-linecap:round;"/>
     </g>
     <g id="line2d_29">
      <g>
       <use style="fill:#262626;stroke:#262626;" x="72.0" xlink:href="#m219da94a98" y="215.6"/>
      </g>
     </g>
     <g id="line2d_30">
      <g>
       <use style="fill:#262626;stroke:#262626;" x="518.4" xlink:href="#m219da94a98" y="215.6"/>
      </g>
     </g>
     <g id="text_10">
      <!-- −6 -->
      <defs>
       <path d="
M49.75 54.0469
L41.0156 53.375
Q39.8438 58.5469 37.7031 60.8906
Q34.125 64.6562 28.9062 64.6562
Q24.7031 64.6562 21.5312 62.3125
Q17.3906 59.2812 14.9844 53.4688
Q12.5938 47.6562 12.5 36.9219
Q15.6719 41.75 20.2656 44.0938
Q24.8594 46.4375 29.8906 46.4375
Q38.6719 46.4375 44.8438 39.9688
Q51.0312 33.5 51.0312 23.25
Q51.0312 16.5 48.125 10.7188
Q45.2188 4.9375 40.1406 1.85938
Q35.0625 -1.21875 28.6094 -1.21875
Q17.625 -1.21875 10.6875 6.85938
Q3.76562 14.9375 3.76562 33.5
Q3.76562 54.25 11.4219 63.6719
Q18.1094 71.875 29.4375 71.875
Q37.8906 71.875 43.2812 67.1406
Q48.6875 62.4062 49.75 54.0469
M13.875 23.1875
Q13.875 18.6562 15.7969 14.5
Q17.7188 10.3594 21.1875 8.17188
Q24.6562 6 28.4688 6
Q34.0312 6 38.0312 10.4844
Q42.0469 14.9844 42.0469 22.7031
Q42.0469 30.125 38.0781 34.3906
Q34.125 38.6719 28.125 38.6719
Q22.1719 38.6719 18.0156 34.3906
Q13.875 30.125 13.875 23.1875" id="ArialMT-36"/>
      </defs>
      <g style="fill:#262626;" transform="translate(54.6125 218.18515625)scale(0.1 -0.1)">
       <use xlink:href="#ArialMT-2212"/>
       <use x="58.3984375" xlink:href="#ArialMT-36"/>
      </g>
     </g>
    </g>
    <g id="ytick_6">
     <g id="line2d_31">
      <path clip-path="url(#p3d386a08f4)" d="
M72 180.4
L518.4 180.4" style="fill:none;stroke:#ffffff;stroke-linecap:round;"/>
     </g>
     <g id="line2d_32">
      <g>
       <use style="fill:#262626;stroke:#262626;" x="72.0" xlink:href="#m219da94a98" y="180.4"/>
      </g>
     </g>
     <g id="line2d_33">
      <g>
       <use style="fill:#262626;stroke:#262626;" x="518.4" xlink:href="#m219da94a98" y="180.4"/>
      </g>
     </g>
     <g id="text_11">
      <!-- −4 -->
      <g style="fill:#262626;" transform="translate(54.6375 182.98515625)scale(0.1 -0.1)">
       <use xlink:href="#ArialMT-2212"/>
       <use x="58.3984375" xlink:href="#ArialMT-34"/>
      </g>
     </g>
    </g>
    <g id="ytick_7">
     <g id="line2d_34">
      <path clip-path="url(#p3d386a08f4)" d="
M72 145.2
L518.4 145.2" style="fill:none;stroke:#ffffff;stroke-linecap:round;"/>
     </g>
     <g id="line2d_35">
      <g>
       <use style="fill:#262626;stroke:#262626;" x="72.0" xlink:href="#m219da94a98" y="145.2"/>
      </g>
     </g>
     <g id="line2d_36">
      <g>
       <use style="fill:#262626;stroke:#262626;" x="518.4" xlink:href="#m219da94a98" y="145.2"/>
      </g>
     </g>
     <g id="text_12">
      <!-- −2 -->
      <g style="fill:#262626;" transform="translate(54.68125 147.78515625)scale(0.1 -0.1)">
       <use xlink:href="#ArialMT-2212"/>
       <use x="58.3984375" xlink:href="#ArialMT-32"/>
      </g>
     </g>
    </g>
    <g id="ytick_8">
     <g id="line2d_37">
      <path clip-path="url(#p3d386a08f4)" d="
M72 110
L518.4 110" style="fill:none;stroke:#ffffff;stroke-linecap:round;"/>
     </g>
     <g id="line2d_38">
      <g>
       <use style="fill:#262626;stroke:#262626;" x="72.0" xlink:href="#m219da94a98" y="110.0"/>
      </g>
     </g>
     <g id="line2d_39">
      <g>
       <use style="fill:#262626;stroke:#262626;" x="518.4" xlink:href="#m219da94a98" y="110.0"/>
      </g>
     </g>
     <g id="text_13">
      <!-- 0 -->
      <g style="fill:#262626;" transform="translate(60.3328125 112.58515625)scale(0.1 -0.1)">
       <use xlink:href="#ArialMT-30"/>
      </g>
     </g>
    </g>
    <g id="ytick_9">
     <g id="line2d_40">
      <path clip-path="url(#p3d386a08f4)" d="
M72 74.8
L518.4 74.8" style="fill:none;stroke:#ffffff;stroke-linecap:round;"/>
     </g>
     <g id="line2d_41">
      <g>
       <use style="fill:#262626;stroke:#262626;" x="72.0" xlink:href="#m219da94a98" y="74.8"/>
      </g>
     </g>
     <g id="line2d_42">
      <g>
       <use style="fill:#262626;stroke:#262626;" x="518.4" xlink:href="#m219da94a98" y="74.8"/>
      </g>
     </g>
     <g id="text_14">
      <!-- 2 -->
      <g style="fill:#262626;" transform="translate(60.259375 77.38515625)scale(0.1 -0.1)">
       <use xlink:href="#ArialMT-32"/>
      </g>
     </g>
    </g>
    <g id="ytick_10">
     <g id="line2d_43">
      <path clip-path="url(#p3d386a08f4)" d="
M72 39.6
L518.4 39.6" style="fill:none;stroke:#ffffff;stroke-linecap:round;"/>
     </g>
     <g id="line2d_44">
      <g>
       <use style="fill:#262626;stroke:#262626;" x="72.0" xlink:href="#m219da94a98" y="39.6"/>
      </g>
     </g>
     <g id="line2d_45">
      <g>
       <use style="fill:#262626;stroke:#262626;" x="518.4" xlink:href="#m219da94a98" y="39.6"/>
      </g>
     </g>
     <g id="text_15">
      <!-- 4 -->
      <g style="fill:#262626;" transform="translate(60.0484375 42.18515625)scale(0.1 -0.1)">
       <use xlink:href="#ArialMT-34"/>
      </g>
     </g>
    </g>
   </g>
   <g id="line2d_46">
    <path clip-path="url(#p3d386a08f4)" d="
M295.2 54.917
L298.367 54.9388
L301.533 55.0042
L307.858 55.2655
L314.167 55.7008
L320.454 56.3095
L326.709 57.0907
L332.927 58.0437
L339.098 59.1672
L345.216 60.4598
L351.273 61.92
L357.261 63.546
L363.174 65.3357
L369.005 67.2872
L374.745 69.3978
L380.388 71.6652
L385.928 74.0865
L391.357 76.6587
L396.668 79.3788
L401.857 82.2434
L406.915 85.2491
L411.837 88.3921
L416.617 91.6686
L421.249 95.0747
L425.728 98.6062
L430.048 102.259
L434.203 106.028
L438.189 109.909
L442 113.898
L445.633 117.989
L449.083 122.178
L452.345 126.458
L455.415 130.827
L458.291 135.277
L460.968 139.803
L463.442 144.4
L465.712 149.063
L467.774 153.785
L469.626 158.561
L471.265 163.385
L472.69 168.251
L473.899 173.154
L474.889 178.087
L475.661 183.044
L476.213 188.019
L476.545 193.006
L476.655 198
L476.545 202.994
L476.213 207.981
L475.661 212.956
L474.889 217.913
L473.899 222.846
L472.69 227.749
L471.265 232.615
L469.626 237.439
L467.774 242.215
L465.712 246.937
L463.442 251.6
L460.968 256.197
L458.291 260.723
L455.415 265.173
L452.345 269.542
L449.083 273.822
L445.633 278.011
L442 282.102
L438.189 286.091
L434.203 289.972
L430.048 293.741
L425.728 297.394
L421.249 300.925
L416.617 304.331
L411.837 307.608
L406.915 310.751
L401.857 313.757
L396.668 316.621
L391.357 319.341
L385.928 321.914
L380.388 324.335
L374.745 326.602
L369.005 328.713
L363.174 330.664
L357.261 332.454
L351.273 334.08
L345.216 335.54
L339.098 336.833
L332.927 337.956
L326.709 338.909
L320.454 339.691
L314.167 340.299
L307.858 340.734
L301.533 340.996
L295.2 341.083
L288.867 340.996
L282.542 340.734
L276.233 340.299
L269.946 339.691
L263.691 338.909
L257.473 337.956
L251.302 336.833
L245.184 335.54
L239.127 334.08
L233.139 332.454
L227.226 330.664
L221.395 328.713
L215.655 326.602
L210.012 324.335
L204.472 321.914
L199.043 319.341
L193.732 316.621
L188.543 313.757
L183.485 310.751
L178.563 307.608
L173.783 304.331
L169.151 300.925
L164.672 297.394
L160.352 293.741
L156.197 289.972
L152.211 286.091
L148.4 282.102
L144.767 278.011
L141.317 273.822
L138.055 269.542
L134.985 265.173
L132.109 260.723
L129.432 256.197
L126.958 251.6
L124.688 246.937
L122.626 242.215
L120.774 237.439
L119.135 232.615
L117.71 227.749
L116.501 222.846
L115.511 217.913
L114.739 212.956
L114.187 207.981
L113.855 202.994
L113.745 198
L113.855 193.006
L114.187 188.019
L114.739 183.044
L115.511 178.087
L116.501 173.154
L117.71 168.251
L119.135 163.385
L120.774 158.561
L122.626 153.785
L124.688 149.063
L126.958 144.4
L129.432 139.803
L132.109 135.277
L134.985 130.827
L138.055 126.458
L141.317 122.178
L144.767 117.989
L148.4 113.898
L152.211 109.909
L156.197 106.028
L160.352 102.259
L164.672 98.6062
L169.151 95.0747
L173.783 91.6686
L178.563 88.3921
L183.485 85.2491
L188.543 82.2434
L193.732 79.3788
L199.043 76.6587
L204.472 74.0865
L210.012 71.6652
L215.655 69.3978
L221.395 67.2872
L227.226 65.3357
L233.139 63.546
L239.127 61.92
L245.184 60.4598
L251.302 59.1672
L257.473 58.0437
L263.691 57.0907
L269.946 56.3095
L276.233 55.7008
L282.542 55.2655
L288.867 55.0042
L292.033 54.9388
L292.033 54.9388" style="fill:none;stroke:#ff0000;stroke-linecap:round;stroke-width:1.75;"/>
   </g>
   <g id="line2d_47">
    <path clip-path="url(#p3d386a08f4)" d="
M295.2 54.917
L298.371 54.9388
L301.542 55.0042
L307.876 55.2655
L314.194 55.7008
L320.489 56.3095
L326.752 57.0907
L332.976 58.0437
L339.153 59.1672
L345.275 60.4598
L351.335 61.92
L357.326 63.546
L363.24 65.3357
L369.069 67.2872
L374.808 69.3978
L380.448 71.6652
L385.984 74.0865
L391.408 76.6587
L396.714 79.3788
L401.896 82.2434
L406.948 85.2491
L411.863 88.3921
L416.637 91.6686
L421.263 95.0747
L425.736 98.6062
L430.051 102.259
L434.204 106.028
L438.189 109.909
L442.001 113.898
L445.638 117.989
L449.094 122.178
L452.365 126.458
L455.449 130.827
L458.341 135.277
L461.039 139.803
L463.538 144.4
L465.838 149.063
L467.934 153.785
L469.824 158.561
L471.507 163.385
L472.981 168.251
L474.243 173.154
L475.291 178.087
L476.126 183.044
L476.745 188.019
L477.148 193.006
L477.334 198
L477.303 202.994
L477.054 207.981
L476.587 212.956
L475.902 217.913
L475.001 222.846
L473.882 227.749
L472.549 232.615
L471 237.439
L469.238 242.215
L467.265 246.937
L465.081 251.6
L462.69 256.197
L460.093 260.723
L457.293 265.173
L454.292 269.542
L451.095 273.822
L447.703 278.011
L444.121 282.102
L440.352 286.091
L436.401 289.972
L432.271 293.741
L427.968 297.394
L423.496 300.925
L418.861 304.331
L414.067 307.608
L409.12 310.751
L404.027 313.757
L398.792 316.621
L393.424 319.341
L387.927 321.914
L382.309 324.335
L376.578 326.602
L370.739 328.713
L364.801 330.664
L358.771 332.454
L352.657 334.08
L346.467 335.54
L340.209 336.833
L333.891 337.956
L327.522 338.909
L321.11 339.691
L314.663 340.299
L308.189 340.734
L301.699 340.996
L295.2 341.083
L288.701 340.996
L282.211 340.734
L275.737 340.299
L269.29 339.691
L262.878 338.909
L256.509 337.956
L250.191 336.833
L243.933 335.54
L237.743 334.08
L231.629 332.454
L225.599 330.664
L219.661 328.713
L213.822 326.602
L208.091 324.335
L202.473 321.914
L196.976 319.341
L191.608 316.621
L186.373 313.757
L181.28 310.751
L176.333 307.608
L171.539 304.331
L166.904 300.925
L162.432 297.394
L158.129 293.741
L153.999 289.972
L150.048 286.091
L146.279 282.102
L142.697 278.011
L139.305 273.822
L136.108 269.542
L133.107 265.173
L130.307 260.723
L127.71 256.197
L125.319 251.6
L123.135 246.937
L121.162 242.215
L119.4 237.439
L117.851 232.615
L116.518 227.749
L115.399 222.846
L114.498 217.913
L113.813 212.956
L113.346 207.981
L113.097 202.994
L113.066 198
L113.252 193.006
L113.655 188.019
L114.274 183.044
L115.109 178.087
L116.157 173.154
L117.419 168.251
L118.893 163.385
L120.576 158.561
L122.466 153.785
L124.562 149.063
L126.862 144.4
L129.361 139.803
L132.059 135.277
L134.951 130.827
L138.035 126.458
L141.306 122.178
L144.762 117.989
L148.399 113.898
L152.211 109.909
L156.196 106.028
L160.349 102.259
L164.664 98.6062
L169.137 95.0747
L173.763 91.6686
L178.537 88.3921
L183.452 85.2491
L188.504 82.2434
L193.686 79.3788
L198.992 76.6587
L204.416 74.0865
L209.952 71.6652
L215.592 69.3978
L221.331 67.2872
L227.16 65.3357
L233.074 63.546
L239.065 61.92
L245.125 60.4598
L251.247 59.1672
L257.424 58.0437
L263.648 57.0907
L269.911 56.3095
L276.206 55.7008
L282.524 55.2655
L288.858 55.0042
L292.029 54.9388
L292.029 54.9388" style="fill:none;stroke:#0000ff;stroke-linecap:round;stroke-width:1.75;"/>
   </g>
   <g id="patch_3">
    <path d="
M72 39.6
L518.4 39.6" style="fill:none;"/>
   </g>
   <g id="patch_4">
    <path d="
M518.4 356.4
L518.4 39.6" style="fill:none;"/>
   </g>
   <g id="patch_5">
    <path d="
M72 356.4
L518.4 356.4" style="fill:none;"/>
   </g>
   <g id="patch_6">
    <path d="
M72 356.4
L72 39.6" style="fill:none;"/>
   </g>
   <g id="text_16">
    <!-- comparing circle approximations to each other -->
    <defs>
     <path d="
M40.4375 19
L49.0781 17.875
Q47.6562 8.9375 41.8125 3.875
Q35.9844 -1.17188 27.4844 -1.17188
Q16.8438 -1.17188 10.375 5.78125
Q3.90625 12.75 3.90625 25.7344
Q3.90625 34.125 6.6875 40.4219
Q9.46875 46.7344 15.1562 49.875
Q20.8438 53.0312 27.5469 53.0312
Q35.9844 53.0312 41.3594 48.75
Q46.7344 44.4844 48.25 36.625
L39.7031 35.2969
Q38.4844 40.5312 35.375 43.1562
Q32.2812 45.7969 27.875 45.7969
Q21.2344 45.7969 17.0781 41.0312
Q12.9375 36.2812 12.9375 25.9844
Q12.9375 15.5312 16.9375 10.7969
Q20.9531 6.0625 27.3906 6.0625
Q32.5625 6.0625 36.0312 9.23438
Q39.5 12.4062 40.4375 19" id="ArialMT-63"/>
     <path d="
M40.4375 6.39062
Q35.5469 2.25 31.0312 0.53125
Q26.5156 -1.17188 21.3438 -1.17188
Q12.7969 -1.17188 8.20312 3
Q3.60938 7.17188 3.60938 13.6719
Q3.60938 17.4844 5.34375 20.625
Q7.07812 23.7812 9.89062 25.6875
Q12.7031 27.5938 16.2188 28.5625
Q18.7969 29.25 24.0312 29.8906
Q34.6719 31.1562 39.7031 32.9062
Q39.75 34.7188 39.75 35.2031
Q39.75 40.5781 37.25 42.7812
Q33.8906 45.75 27.25 45.75
Q21.0469 45.75 18.0938 43.5781
Q15.1406 41.4062 13.7188 35.8906
L5.125 37.0625
Q6.29688 42.5781 8.98438 45.9688
Q11.6719 49.3594 16.75 51.1875
Q21.8281 53.0312 28.5156 53.0312
Q35.1562 53.0312 39.2969 51.4688
Q43.4531 49.9062 45.4062 47.5312
Q47.3594 45.1719 48.1406 41.5469
Q48.5781 39.3125 48.5781 33.4531
L48.5781 21.7344
Q48.5781 9.46875 49.1406 6.21875
Q49.7031 2.98438 51.375 0
L42.1875 0
Q40.8281 2.73438 40.4375 6.39062
M39.7031 26.0312
Q34.9062 24.0781 25.3438 22.7031
Q19.9219 21.9219 17.6719 20.9375
Q15.4375 19.9688 14.2031 18.0938
Q12.9844 16.2188 12.9844 13.9219
Q12.9844 10.4062 15.6406 8.0625
Q18.3125 5.71875 23.4375 5.71875
Q28.5156 5.71875 32.4688 7.9375
Q36.4219 10.1562 38.2812 14.0156
Q39.7031 17 39.7031 22.7969
z
" id="ArialMT-61"/>
     <path d="
M4.98438 -4.29688
L13.5312 -5.5625
Q14.0625 -9.51562 16.5 -11.3281
Q19.7812 -13.7656 25.4375 -13.7656
Q31.5469 -13.7656 34.8594 -11.3281
Q38.1875 -8.89062 39.3594 -4.5
Q40.0469 -1.8125 39.9844 6.78125
Q34.2344 0 25.6406 0
Q14.9375 0 9.07812 7.71875
Q3.21875 15.4375 3.21875 26.2188
Q3.21875 33.6406 5.90625 39.9062
Q8.59375 46.1875 13.6875 49.6094
Q18.7969 53.0312 25.6875 53.0312
Q34.8594 53.0312 40.8281 45.6094
L40.8281 51.8594
L48.9219 51.8594
L48.9219 7.03125
Q48.9219 -5.07812 46.4531 -10.125
Q44 -15.1875 38.6406 -18.1094
Q33.2969 -21.0469 25.4844 -21.0469
Q16.2188 -21.0469 10.5 -16.875
Q4.78125 -12.7031 4.98438 -4.29688
M12.25 26.8594
Q12.25 16.6562 16.2969 11.9688
Q20.3594 7.28125 26.4688 7.28125
Q32.5156 7.28125 36.6094 11.9375
Q40.7188 16.6094 40.7188 26.5625
Q40.7188 36.0781 36.5 40.9062
Q32.2812 45.75 26.3125 45.75
Q20.4531 45.75 16.3438 40.9844
Q12.25 36.2344 12.25 26.8594" id="ArialMT-67"/>
     <path d="
M42.0938 16.7031
L51.1719 15.5781
Q49.0312 7.625 43.2188 3.21875
Q37.4062 -1.17188 28.375 -1.17188
Q17 -1.17188 10.3281 5.82812
Q3.65625 12.8438 3.65625 25.4844
Q3.65625 38.5781 10.3906 45.7969
Q17.1406 53.0312 27.875 53.0312
Q38.2812 53.0312 44.875 45.9531
Q51.4688 38.875 51.4688 26.0312
Q51.4688 25.25 51.4219 23.6875
L12.75 23.6875
Q13.2344 15.1406 17.5781 10.5938
Q21.9219 6.0625 28.4219 6.0625
Q33.25 6.0625 36.6719 8.59375
Q40.0938 11.1406 42.0938 16.7031
M13.2344 30.9062
L42.1875 30.9062
Q41.6094 37.4531 38.875 40.7188
Q34.6719 45.7969 27.9844 45.7969
Q21.9219 45.7969 17.7969 41.75
Q13.6719 37.7031 13.2344 30.9062" id="ArialMT-65"/>
     <path d="
M25.7812 7.85938
L27.0469 0.09375
Q23.3438 -0.6875 20.4062 -0.6875
Q15.625 -0.6875 12.9844 0.828125
Q10.3594 2.34375 9.28125 4.8125
Q8.20312 7.28125 8.20312 15.1875
L8.20312 45.0156
L1.76562 45.0156
L1.76562 51.8594
L8.20312 51.8594
L8.20312 64.7031
L16.9375 69.9688
L16.9375 51.8594
L25.7812 51.8594
L25.7812 45.0156
L16.9375 45.0156
L16.9375 14.7031
Q16.9375 10.9375 17.4062 9.85938
Q17.875 8.79688 18.9219 8.15625
Q19.9688 7.51562 21.9219 7.51562
Q23.3906 7.51562 25.7812 7.85938" id="ArialMT-74"/>
     <path d="
M6.64062 61.4688
L6.64062 71.5781
L15.4375 71.5781
L15.4375 61.4688
z

M6.64062 0
L6.64062 51.8594
L15.4375 51.8594
L15.4375 0
z
" id="ArialMT-69"/>
     <path d="
M6.59375 0
L6.59375 71.5781
L15.375 71.5781
L15.375 45.9062
Q21.5312 53.0312 30.9062 53.0312
Q36.6719 53.0312 40.9219 50.75
Q45.1719 48.4844 47 44.4844
Q48.8281 40.4844 48.8281 32.8594
L48.8281 0
L40.0469 0
L40.0469 32.8594
Q40.0469 39.4531 37.1875 42.4531
Q34.3281 45.4531 29.1094 45.4531
Q25.2031 45.4531 21.75 43.4219
Q18.3125 41.4062 16.8438 37.9375
Q15.375 34.4688 15.375 28.375
L15.375 0
z
" id="ArialMT-68"/>
     <path d="
M6.59375 -19.875
L6.59375 51.8594
L14.5938 51.8594
L14.5938 45.125
Q17.4375 49.0781 21 51.0469
Q24.5625 53.0312 29.6406 53.0312
Q36.2812 53.0312 41.3594 49.6094
Q46.4375 46.1875 49.0156 39.9531
Q51.6094 33.7344 51.6094 26.3125
Q51.6094 18.3594 48.75 11.9844
Q45.9062 5.60938 40.4531 2.21875
Q35.0156 -1.17188 29 -1.17188
Q24.6094 -1.17188 21.1094 0.6875
Q17.625 2.54688 15.375 5.375
L15.375 -19.875
z

M14.5469 25.6406
Q14.5469 15.625 18.5938 10.8438
Q22.6562 6.0625 28.4219 6.0625
Q34.2812 6.0625 38.4531 11.0156
Q42.625 15.9688 42.625 26.375
Q42.625 36.2812 38.5469 41.2031
Q34.4688 46.1406 28.8125 46.1406
Q23.1875 46.1406 18.8594 40.8906
Q14.5469 35.6406 14.5469 25.6406" id="ArialMT-70"/>
     <path d="
M6.5 0
L6.5 51.8594
L14.4062 51.8594
L14.4062 44
Q17.4375 49.5156 20 51.2656
Q22.5625 53.0312 25.6406 53.0312
Q30.0781 53.0312 34.6719 50.2031
L31.6406 42.0469
Q28.4219 43.9531 25.2031 43.9531
Q22.3125 43.9531 20.0156 42.2188
Q17.7188 40.4844 16.75 37.4062
Q15.2812 32.7188 15.2812 27.1562
L15.2812 0
z
" id="ArialMT-72"/>
     <path d="
M3.07812 15.4844
L11.7656 16.8438
Q12.5 11.625 15.8438 8.84375
Q19.1875 6.0625 25.2031 6.0625
Q31.25 6.0625 34.1719 8.51562
Q37.1094 10.9844 37.1094 14.3125
Q37.1094 17.2812 34.5156 19
Q32.7188 20.1719 25.5312 21.9688
Q15.875 24.4219 12.1406 26.2031
Q8.40625 27.9844 6.46875 31.125
Q4.54688 34.2812 4.54688 38.0938
Q4.54688 41.5469 6.125 44.5
Q7.71875 47.4688 10.4531 49.4219
Q12.5 50.9219 16.0312 51.9688
Q19.5781 53.0312 23.6406 53.0312
Q29.7344 53.0312 34.3438 51.2656
Q38.9688 49.5156 41.1562 46.5
Q43.3594 43.5 44.1875 38.4844
L35.5938 37.3125
Q35.0156 41.3125 32.2031 43.5469
Q29.3906 45.7969 24.2656 45.7969
Q18.2188 45.7969 15.625 43.7969
Q13.0312 41.7969 13.0312 39.1094
Q13.0312 37.4062 14.1094 36.0312
Q15.1875 34.625 17.4844 33.6875
Q18.7969 33.2031 25.25 31.4531
Q34.5781 28.9531 38.25 27.3594
Q41.9375 25.7812 44.0312 22.75
Q46.1406 19.7344 46.1406 15.2344
Q46.1406 10.8438 43.5781 6.95312
Q41.0156 3.07812 36.1719 0.953125
Q31.3438 -1.17188 25.25 -1.17188
Q15.1406 -1.17188 9.84375 3.03125
Q4.54688 7.23438 3.07812 15.4844" id="ArialMT-73"/>
     <path d="
M6.39062 0
L6.39062 71.5781
L15.1875 71.5781
L15.1875 0
z
" id="ArialMT-6c"/>
     <path d="
M3.32812 25.9219
Q3.32812 40.3281 11.3281 47.2656
Q18.0156 53.0312 27.6406 53.0312
Q38.3281 53.0312 45.1094 46.0156
Q51.9062 39.0156 51.9062 26.6562
Q51.9062 16.6562 48.9062 10.9062
Q45.9062 5.17188 40.1562 2
Q34.4219 -1.17188 27.6406 -1.17188
Q16.75 -1.17188 10.0312 5.8125
Q3.32812 12.7969 3.32812 25.9219
M12.3594 25.9219
Q12.3594 15.9688 16.7031 11.0156
Q21.0469 6.0625 27.6406 6.0625
Q34.1875 6.0625 38.5312 11.0312
Q42.875 16.0156 42.875 26.2188
Q42.875 35.8438 38.5 40.7969
Q34.125 45.75 27.6406 45.75
Q21.0469 45.75 16.7031 40.8125
Q12.3594 35.8906 12.3594 25.9219" id="ArialMT-6f"/>
     <path d="
M6.59375 0
L6.59375 51.8594
L14.5 51.8594
L14.5 44.4844
Q20.2188 53.0312 31 53.0312
Q35.6875 53.0312 39.625 51.3438
Q43.5625 49.6562 45.5156 46.9219
Q47.4688 44.1875 48.25 40.4375
Q48.7344 37.9844 48.7344 31.8906
L48.7344 0
L39.9375 0
L39.9375 31.5469
Q39.9375 36.9219 38.9062 39.5781
Q37.8906 42.2344 35.2812 43.8125
Q32.6719 45.4062 29.1562 45.4062
Q23.5312 45.4062 19.4531 41.8438
Q15.375 38.2812 15.375 28.3281
L15.375 0
z
" id="ArialMT-6e"/>
     <path d="
M6.59375 0
L6.59375 51.8594
L14.4531 51.8594
L14.4531 44.5781
Q16.8906 48.3906 20.9375 50.7031
Q25 53.0312 30.1719 53.0312
Q35.9375 53.0312 39.625 50.6406
Q43.3125 48.25 44.8281 43.9531
Q50.9844 53.0312 60.8438 53.0312
Q68.5625 53.0312 72.7031 48.75
Q76.8594 44.4844 76.8594 35.5938
L76.8594 0
L68.1094 0
L68.1094 32.6719
Q68.1094 37.9375 67.25 40.25
Q66.4062 42.5781 64.1562 43.9844
Q61.9219 45.4062 58.8906 45.4062
Q53.4219 45.4062 49.7969 41.7656
Q46.1875 38.1406 46.1875 30.125
L46.1875 0
L37.4062 0
L37.4062 33.6875
Q37.4062 39.5469 35.25 42.4688
Q33.1094 45.4062 28.2188 45.4062
Q24.5156 45.4062 21.3594 43.4531
Q18.2188 41.5 16.7969 37.7344
Q15.375 33.9844 15.375 26.9062
L15.375 0
z
" id="ArialMT-6d"/>
     <path d="
M0.734375 0
L19.6719 26.9531
L2.15625 51.8594
L13.1406 51.8594
L21.0938 39.7031
Q23.3438 36.2344 24.7031 33.8906
Q26.8594 37.1094 28.6562 39.5938
L37.4062 51.8594
L47.9062 51.8594
L29.9844 27.4375
L49.2656 0
L38.4844 0
L27.8281 16.1094
L25 20.4531
L11.375 0
z
" id="ArialMT-78"/>
     <path id="ArialMT-20"/>
    </defs>
    <g style="fill:#262626;" transform="translate(172.39875 34.6)scale(0.12 -0.12)">
     <use xlink:href="#ArialMT-63"/>
     <use x="50.0" xlink:href="#ArialMT-6f"/>
     <use x="105.615234375" xlink:href="#ArialMT-6d"/>
     <use x="188.916015625" xlink:href="#ArialMT-70"/>
     <use x="244.53125" xlink:href="#ArialMT-61"/>
     <use x="300.146484375" xlink:href="#ArialMT-72"/>
     <use x="333.447265625" xlink:href="#ArialMT-69"/>
     <use x="355.6640625" xlink:href="#ArialMT-6e"/>
     <use x="411.279296875" xlink:href="#ArialMT-67"/>
     <use x="466.89453125" xlink:href="#ArialMT-20"/>
     <use x="494.677734375" xlink:href="#ArialMT-63"/>
     <use x="544.677734375" xlink:href="#ArialMT-69"/>
     <use x="566.89453125" xlink:href="#ArialMT-72"/>
     <use x="600.1953125" xlink:href="#ArialMT-63"/>
     <use x="650.1953125" xlink:href="#ArialMT-6c"/>
     <use x="672.412109375" xlink:href="#ArialMT-65"/>
     <use x="728.02734375" xlink:href="#ArialMT-20"/>
     <use x="755.810546875" xlink:href="#ArialMT-61"/>
     <use x="811.42578125" xlink:href="#ArialMT-70"/>
     <use x="867.041015625" xlink:href="#ArialMT-70"/>
     <use x="922.65625" xlink:href="#ArialMT-72"/>
     <use x="955.95703125" xlink:href="#ArialMT-6f"/>
     <use x="1011.57226562" xlink:href="#ArialMT-78"/>
     <use x="1061.57226562" xlink:href="#ArialMT-69"/>
     <use x="1083.7890625" xlink:href="#ArialMT-6d"/>
     <use x="1167.08984375" xlink:href="#ArialMT-61"/>
     <use x="1222.70507812" xlink:href="#ArialMT-74"/>
     <use x="1250.48828125" xlink:href="#ArialMT-69"/>
     <use x="1272.70507812" xlink:href="#ArialMT-6f"/>
     <use x="1328.3203125" xlink:href="#ArialMT-6e"/>
     <use x="1383.93554688" xlink:href="#ArialMT-73"/>
     <use x="1433.93554688" xlink:href="#ArialMT-20"/>
     <use x="1461.71875" xlink:href="#ArialMT-74"/>
     <use x="1489.50195312" xlink:href="#ArialMT-6f"/>
     <use x="1545.1171875" xlink:href="#ArialMT-20"/>
     <use x="1572.90039062" xlink:href="#ArialMT-65"/>
     <use x="1628.515625" xlink:href="#ArialMT-61"/>
     <use x="1684.13085938" xlink:href="#ArialMT-63"/>
     <use x="1734.13085938" xlink:href="#ArialMT-68"/>
     <use x="1789.74609375" xlink:href="#ArialMT-20"/>
     <use x="1817.52929688" xlink:href="#ArialMT-6f"/>
     <use x="1873.14453125" xlink:href="#ArialMT-74"/>
     <use x="1900.92773438" xlink:href="#ArialMT-68"/>
     <use x="1956.54296875" xlink:href="#ArialMT-65"/>
     <use x="2012.15820312" xlink:href="#ArialMT-72"/>
    </g>
   </g>
   <g id="legend_1">
    <g id="line2d_48">
     <path d="
M426.806 52.2578
L446.806 52.2578" style="fill:none;stroke:#ff0000;stroke-linecap:round;stroke-width:1.75;"/>
    </g>
    <g id="line2d_49"/>
    <g id="text_17">
     <!-- simple circle -->
     <g style="fill:#262626;" transform="translate(454.80625 55.7578125)scale(0.1 -0.1)">
      <use xlink:href="#ArialMT-73"/>
      <use x="50.0" xlink:href="#ArialMT-69"/>
      <use x="72.216796875" xlink:href="#ArialMT-6d"/>
      <use x="155.517578125" xlink:href="#ArialMT-70"/>
      <use x="211.1328125" xlink:href="#ArialMT-6c"/>
      <use x="233.349609375" xlink:href="#ArialMT-65"/>
      <use x="288.96484375" xlink:href="#ArialMT-20"/>
      <use x="316.748046875" xlink:href="#ArialMT-63"/>
      <use x="366.748046875" xlink:href="#ArialMT-69"/>
      <use x="388.96484375" xlink:href="#ArialMT-72"/>
      <use x="422.265625" xlink:href="#ArialMT-63"/>
      <use x="472.265625" xlink:href="#ArialMT-6c"/>
      <use x="494.482421875" xlink:href="#ArialMT-65"/>
     </g>
    </g>
    <g id="line2d_50">
     <path d="
M426.806 66.4031
L446.806 66.4031" style="fill:none;stroke:#0000ff;stroke-linecap:round;stroke-width:1.75;"/>
    </g>
    <g id="line2d_51"/>
    <g id="text_18">
     <!-- ellipsoid -->
     <defs>
      <path d="
M40.2344 0
L40.2344 6.54688
Q35.2969 -1.17188 25.7344 -1.17188
Q19.5312 -1.17188 14.3281 2.25
Q9.125 5.67188 6.26562 11.7969
Q3.42188 17.9219 3.42188 25.875
Q3.42188 33.6406 6 39.9688
Q8.59375 46.2969 13.7656 49.6562
Q18.9531 53.0312 25.3438 53.0312
Q30.0312 53.0312 33.6875 51.0469
Q37.3594 49.0781 39.6562 45.9062
L39.6562 71.5781
L48.3906 71.5781
L48.3906 0
z

M12.4531 25.875
Q12.4531 15.9219 16.6406 10.9844
Q20.8438 6.0625 26.5625 6.0625
Q32.3281 6.0625 36.3438 10.7656
Q40.375 15.4844 40.375 25.1406
Q40.375 35.7969 36.2656 40.7656
Q32.1719 45.75 26.1719 45.75
Q20.3125 45.75 16.375 40.9688
Q12.4531 36.1875 12.4531 25.875" id="ArialMT-64"/>
     </defs>
     <g style="fill:#262626;" transform="translate(454.80625 69.903125)scale(0.1 -0.1)">
      <use xlink:href="#ArialMT-65"/>
      <use x="55.615234375" xlink:href="#ArialMT-6c"/>
      <use x="77.83203125" xlink:href="#ArialMT-6c"/>
      <use x="100.048828125" xlink:href="#ArialMT-69"/>
      <use x="122.265625" xlink:href="#ArialMT-70"/>
      <use x="177.880859375" xlink:href="#ArialMT-73"/>
      <use x="227.880859375" xlink:href="#ArialMT-6f"/>
      <use x="283.49609375" xlink:href="#ArialMT-69"/>
      <use x="305.712890625" xlink:href="#ArialMT-64"/>
     </g>
    </g>
   </g>
  </g>
  <g id="text_19">
   <!-- last_known_heading: 255.136, km_hop: 700, output_directory: examples/km_hop_700, simulations: 1000 -->
   <defs>
    <path d="
M0 -1.21875
L20.75 72.7969
L27.7812 72.7969
L7.07812 -1.21875
z
" id="ArialMT-2f"/>
    <path d="
M6.20312 -19.9688
L5.21875 -11.7188
Q8.10938 -12.5 10.25 -12.5
Q13.1875 -12.5 14.9375 -11.5156
Q16.7031 -10.5469 17.8281 -8.79688
Q18.6562 -7.46875 20.5156 -2.25
Q20.75 -1.51562 21.2969 -0.09375
L1.60938 51.8594
L11.0781 51.8594
L21.875 21.8281
Q23.9688 16.1094 25.6406 9.8125
Q27.1562 15.875 29.25 21.625
L40.3281 51.8594
L49.125 51.8594
L29.3906 -0.875
Q26.2188 -9.42188 24.4688 -12.6406
Q22.125 -17 19.0938 -19.0156
Q16.0625 -21.0469 11.8594 -21.0469
Q9.32812 -21.0469 6.20312 -19.9688" id="ArialMT-79"/>
    <path d="
M9.03125 41.8438
L9.03125 51.8594
L19.0469 51.8594
L19.0469 41.8438
z

M9.03125 0
L9.03125 10.0156
L19.0469 10.0156
L19.0469 0
z
" id="ArialMT-3a"/>
    <path d="
M9.07812 0
L9.07812 10.0156
L19.0938 10.0156
L19.0938 0
z
" id="ArialMT-2e"/>
    <path d="
M16.1562 0
L0.296875 51.8594
L9.375 51.8594
L17.625 21.9219
L20.7031 10.7969
Q20.9062 11.625 23.3906 21.4844
L31.6406 51.8594
L40.6719 51.8594
L48.4375 21.7812
L51.0312 11.8594
L54 21.875
L62.8906 51.8594
L71.4375 51.8594
L55.2188 0
L46.0938 0
L37.8438 31.0625
L35.8438 39.8906
L25.3438 0
z
" id="ArialMT-77"/>
    <path d="
M8.89062 0
L8.89062 10.0156
L18.8906 10.0156
L18.8906 0
Q18.8906 -5.51562 16.9375 -8.90625
Q14.9844 -12.3125 10.75 -14.1562
L8.29688 -10.4062
Q11.0781 -9.1875 12.3906 -6.8125
Q13.7188 -4.4375 13.875 0
z
" id="ArialMT-2c"/>
    <path d="
M6.64062 0
L6.64062 71.5781
L15.4375 71.5781
L15.4375 30.7656
L36.2344 51.8594
L47.6094 51.8594
L27.7812 32.625
L49.6094 0
L38.7656 0
L21.625 26.5156
L15.4375 20.5625
L15.4375 0
z
" id="ArialMT-6b"/>
    <path d="
M40.5781 0
L40.5781 7.625
Q34.5156 -1.17188 24.125 -1.17188
Q19.5312 -1.17188 15.5469 0.578125
Q11.5781 2.34375 9.64062 5
Q7.71875 7.67188 6.9375 11.5312
Q6.39062 14.1094 6.39062 19.7344
L6.39062 51.8594
L15.1875 51.8594
L15.1875 23.0938
Q15.1875 16.2188 15.7188 13.8125
Q16.5469 10.3594 19.2344 8.375
Q21.9219 6.39062 25.875 6.39062
Q29.8281 6.39062 33.2969 8.42188
Q36.7656 10.4531 38.2031 13.9375
Q39.6562 17.4375 39.6562 24.0781
L39.6562 51.8594
L48.4375 51.8594
L48.4375 0
z
" id="ArialMT-75"/>
    <path d="
M4.20312 18.8906
L12.9844 20.0625
Q14.5 12.5938 18.1406 9.29688
Q21.7812 6 27 6
Q33.2031 6 37.4688 10.2969
Q41.75 14.5938 41.75 20.9531
Q41.75 27 37.7969 30.9219
Q33.8438 34.8594 27.7344 34.8594
Q25.25 34.8594 21.5312 33.8906
L22.5156 41.6094
Q23.3906 41.5 23.9219 41.5
Q29.5469 41.5 34.0312 44.4219
Q38.5312 47.3594 38.5312 53.4688
Q38.5312 58.2969 35.25 61.4688
Q31.9844 64.6562 26.8125 64.6562
Q21.6875 64.6562 18.2656 61.4219
Q14.8438 58.2031 13.875 51.7656
L5.07812 53.3281
Q6.6875 62.1562 12.3906 67.0156
Q18.1094 71.875 26.6094 71.875
Q32.4688 71.875 37.3906 69.3594
Q42.3281 66.8438 44.9375 62.5
Q47.5625 58.1562 47.5625 53.2656
Q47.5625 48.6406 45.0625 44.8281
Q42.5781 41.0156 37.7031 38.7656
Q44.0469 37.3125 47.5625 32.6875
Q51.0781 28.0781 51.0781 21.1406
Q51.0781 11.7656 44.2344 5.25
Q37.4062 -1.26562 26.9531 -1.26562
Q17.5312 -1.26562 11.2969 4.34375
Q5.07812 9.96875 4.20312 18.8906" id="ArialMT-33"/>
    <path d="
M-1.51562 -19.875
L-1.51562 -13.5312
L56.7344 -13.5312
L56.7344 -19.875
z
" id="ArialMT-5f"/>
    <path d="
M4.73438 62.2031
L4.73438 70.6562
L51.0781 70.6562
L51.0781 63.8125
Q44.2344 56.5469 37.5156 44.4844
Q30.8125 32.4219 27.1562 19.6719
Q24.5156 10.6875 23.7812 0
L14.75 0
Q14.8906 8.45312 18.0625 20.4062
Q21.2344 32.375 27.1719 43.4844
Q33.1094 54.5938 39.7969 62.2031
z
" id="ArialMT-37"/>
   </defs>
   <g style="fill:#262626;" transform="translate(0.0 7.2796875)scale(0.1 -0.1)">
    <use xlink:href="#ArialMT-6c"/>
    <use x="22.216796875" xlink:href="#ArialMT-61"/>
    <use x="77.83203125" xlink:href="#ArialMT-73"/>
    <use x="127.83203125" xlink:href="#ArialMT-74"/>
    <use x="155.615234375" xlink:href="#ArialMT-5f"/>
    <use x="211.23046875" xlink:href="#ArialMT-6b"/>
    <use x="261.23046875" xlink:href="#ArialMT-6e"/>
    <use x="316.845703125" xlink:href="#ArialMT-6f"/>
    <use x="372.4609375" xlink:href="#ArialMT-77"/>
    <use x="444.677734375" xlink:href="#ArialMT-6e"/>
    <use x="500.29296875" xlink:href="#ArialMT-5f"/>
    <use x="555.908203125" xlink:href="#ArialMT-68"/>
    <use x="611.5234375" xlink:href="#ArialMT-65"/>
    <use x="667.138671875" xlink:href="#ArialMT-61"/>
    <use x="722.75390625" xlink:href="#ArialMT-64"/>
    <use x="778.369140625" xlink:href="#ArialMT-69"/>
    <use x="800.5859375" xlink:href="#ArialMT-6e"/>
    <use x="856.201171875" xlink:href="#ArialMT-67"/>
    <use x="911.81640625" xlink:href="#ArialMT-3a"/>
    <use x="939.599609375" xlink:href="#ArialMT-20"/>
    <use x="967.3828125" xlink:href="#ArialMT-32"/>
    <use x="1022.99804688" xlink:href="#ArialMT-35"/>
    <use x="1078.61328125" xlink:href="#ArialMT-35"/>
    <use x="1134.22851562" xlink:href="#ArialMT-2e"/>
    <use x="1162.01171875" xlink:href="#ArialMT-31"/>
    <use x="1217.62695312" xlink:href="#ArialMT-33"/>
    <use x="1273.2421875" xlink:href="#ArialMT-36"/>
    <use x="1328.85742188" xlink:href="#ArialMT-2c"/>
    <use x="1356.640625" xlink:href="#ArialMT-20"/>
    <use x="1384.42382812" xlink:href="#ArialMT-6b"/>
    <use x="1434.42382812" xlink:href="#ArialMT-6d"/>
    <use x="1517.72460938" xlink:href="#ArialMT-5f"/>
    <use x="1573.33984375" xlink:href="#ArialMT-68"/>
    <use x="1628.95507812" xlink:href="#ArialMT-6f"/>
    <use x="1684.5703125" xlink:href="#ArialMT-70"/>
    <use x="1740.18554688" xlink:href="#ArialMT-3a"/>
    <use x="1767.96875" xlink:href="#ArialMT-20"/>
    <use x="1795.75195312" xlink:href="#ArialMT-37"/>
    <use x="1851.3671875" xlink:href="#ArialMT-30"/>
    <use x="1906.98242188" xlink:href="#ArialMT-30"/>
    <use x="1962.59765625" xlink:href="#ArialMT-2c"/>
    <use x="1990.38085938" xlink:href="#ArialMT-20"/>
    <use x="2018.1640625" xlink:href="#ArialMT-6f"/>
    <use x="2073.77929688" xlink:href="#ArialMT-75"/>
    <use x="2129.39453125" xlink:href="#ArialMT-74"/>
    <use x="2157.17773438" xlink:href="#ArialMT-70"/>
    <use x="2212.79296875" xlink:href="#ArialMT-75"/>
    <use x="2268.40820312" xlink:href="#ArialMT-74"/>
    <use x="2296.19140625" xlink:href="#ArialMT-5f"/>
    <use x="2351.80664062" xlink:href="#ArialMT-64"/>
    <use x="2407.421875" xlink:href="#ArialMT-69"/>
    <use x="2429.63867188" xlink:href="#ArialMT-72"/>
    <use x="2462.93945312" xlink:href="#ArialMT-65"/>
    <use x="2518.5546875" xlink:href="#ArialMT-63"/>
    <use x="2568.5546875" xlink:href="#ArialMT-74"/>
    <use x="2596.33789062" xlink:href="#ArialMT-6f"/>
    <use x="2651.953125" xlink:href="#ArialMT-72"/>
    <use x="2685.25390625" xlink:href="#ArialMT-79"/>
    <use x="2735.25390625" xlink:href="#ArialMT-3a"/>
    <use x="2763.03710938" xlink:href="#ArialMT-20"/>
    <use x="2790.8203125" xlink:href="#ArialMT-65"/>
    <use x="2846.43554688" xlink:href="#ArialMT-78"/>
    <use x="2896.43554688" xlink:href="#ArialMT-61"/>
    <use x="2952.05078125" xlink:href="#ArialMT-6d"/>
    <use x="3035.3515625" xlink:href="#ArialMT-70"/>
    <use x="3090.96679688" xlink:href="#ArialMT-6c"/>
    <use x="3113.18359375" xlink:href="#ArialMT-65"/>
    <use x="3168.79882812" xlink:href="#ArialMT-73"/>
    <use x="3218.79882812" xlink:href="#ArialMT-2f"/>
    <use x="3246.58203125" xlink:href="#ArialMT-6b"/>
    <use x="3296.58203125" xlink:href="#ArialMT-6d"/>
    <use x="3379.8828125" xlink:href="#ArialMT-5f"/>
    <use x="3435.49804688" xlink:href="#ArialMT-68"/>
    <use x="3491.11328125" xlink:href="#ArialMT-6f"/>
    <use x="3546.72851562" xlink:href="#ArialMT-70"/>
    <use x="3602.34375" xlink:href="#ArialMT-5f"/>
    <use x="3657.95898438" xlink:href="#ArialMT-37"/>
    <use x="3713.57421875" xlink:href="#ArialMT-30"/>
    <use x="3769.18945312" xlink:href="#ArialMT-30"/>
    <use x="3824.8046875" xlink:href="#ArialMT-2c"/>
    <use x="3852.58789062" xlink:href="#ArialMT-20"/>
    <use x="3880.37109375" xlink:href="#ArialMT-73"/>
    <use x="3930.37109375" xlink:href="#ArialMT-69"/>
    <use x="3952.58789062" xlink:href="#ArialMT-6d"/>
    <use x="4035.88867188" xlink:href="#ArialMT-75"/>
    <use x="4091.50390625" xlink:href="#ArialMT-6c"/>
    <use x="4113.72070312" xlink:href="#ArialMT-61"/>
    <use x="4169.3359375" xlink:href="#ArialMT-74"/>
    <use x="4197.11914062" xlink:href="#ArialMT-69"/>
    <use x="4219.3359375" xlink:href="#ArialMT-6f"/>
    <use x="4274.95117188" xlink:href="#ArialMT-6e"/>
    <use x="4330.56640625" xlink:href="#ArialMT-73"/>
    <use x="4380.56640625" xlink:href="#ArialMT-3a"/>
    <use x="4408.34960938" xlink:href="#ArialMT-20"/>
    <use x="4436.1328125" xlink:href="#ArialMT-31"/>
    <use x="4491.74804688" xlink:href="#ArialMT-30"/>
    <use x="4547.36328125" xlink:href="#ArialMT-30"/>
    <use x="4602.97851562" xlink:href="#ArialMT-30"/>
   </g>
  </g>
 </g>
 <defs>
  <clipPath id="p3d386a08f4">
   <rect height="316.8" width="446.4" x="72.0" y="39.6"/>
  </clipPath>
 </defs>
</svg>
