<?xml version="1.0" encoding="utf-8" standalone="no"?>
<!DOCTYPE svg PUBLIC "-//W3C//DTD SVG 1.1//EN"
  "http://www.w3.org/Graphics/SVG/1.1/DTD/svg11.dtd">
<!-- Created with matplotlib (http://matplotlib.org/) -->
<svg height="396pt" version="1.1" viewBox="0 0 576 396" width="576pt" xmlns="http://www.w3.org/2000/svg" xmlns:xlink="http://www.w3.org/1999/xlink">
 <defs>
  <style type="text/css">
*{stroke-linecap:butt;stroke-linejoin:round;}
  </style>
 </defs>
 <g id="figure_1">
  <g id="patch_1">
   <path d="
M0 396
L576 396
L576 0
L0 0
z
" style="fill:#ffffff;"/>
  </g>
  <g id="axes_1">
   <g id="patch_2">
    <path d="
M72 356.4
L518.4 356.4
L518.4 39.6
L72 39.6
z
" style="fill:#eaeaf2;"/>
   </g>
   <g id="matplotlib.axis_1">
    <g id="xtick_1">
     <g id="line2d_1">
      <path clip-path="url(#p3d386a08f4)" d="
M72 356.4
L72 39.6" style="fill:none;stroke:#ffffff;stroke-linecap:round;"/>
     </g>
     <g id="line2d_2">
      <defs>
       <path d="
M0 0
L0 0" id="m219da94a98" style="stroke:#262626;"/>
      </defs>
      <g>
       <use style="fill:#262626;stroke:#262626;" x="72.0" xlink:href="#m219da94a98" y="356.4"/>
      </g>
     </g>
     <g id="line2d_3">
      <g>
       <use style="fill:#262626;stroke:#262626;" x="72.0" xlink:href="#m219da94a98" y="39.6"/>
      </g>
     </g>
     <g id="text_1">
      <!-- 0 -->
      <defs>
       <path d="
M4.15625 35.2969
Q4.15625 48 6.76562 55.7344
Q9.375 63.4844 14.5156 67.6719
Q19.6719 71.875 27.4844 71.875
Q33.25 71.875 37.5938 69.5469
Q41.9375 67.2344 44.7656 62.8594
Q47.6094 58.5 49.2188 52.2188
Q50.8281 45.9531 50.8281 35.2969
Q50.8281 22.7031 48.2344 14.9688
Q45.6562 7.23438 40.5 3
Q35.3594 -1.21875 27.4844 -1.21875
Q17.1406 -1.21875 11.2344 6.20312
Q4.15625 15.1406 4.15625 35.2969
M13.1875 35.2969
Q13.1875 17.6719 17.3125 11.8281
Q21.4375 6 27.4844 6
Q33.5469 6 37.6719 11.8594
Q41.7969 17.7188 41.7969 35.2969
Q41.7969 52.9844 37.6719 58.7812
Q33.5469 64.5938 27.3906 64.5938
Q21.3438 64.5938 17.7188 59.4688
Q13.1875 52.9375 13.1875 35.2969" id="ArialMT-30"/>
      </defs>
      <g style="fill:#262626;" transform="translate(69.66640625 370.5578125)scale(0.1 -0.1)">
       <use xlink:href="#ArialMT-30"/>
      </g>
     </g>
    </g>
    <g id="xtick_2">
     <g id="line2d_4">
      <path clip-path="url(#p3d386a08f4)" d="
M131.52 356.4
L131.52 39.6" style="fill:none;stroke:#ffffff;stroke-linecap:round;"/>
     </g>
     <g id="line2d_5">
      <g>
       <use style="fill:#262626;stroke:#262626;" x="131.52" xlink:href="#m219da94a98" y="356.4"/>
      </g>
     </g>
     <g id="line2d_6">
      <g>
       <use style="fill:#262626;stroke:#262626;" x="131.52" xlink:href="#m219da94a98" y="39.6"/>
      </g>
     </g>
     <g id="text_2">
      <!-- 10 -->
      <defs>
       <path d="
M37.25 0
L28.4688 0
L28.4688 56
Q25.2969 52.9844 20.1406 49.9531
Q14.9844 46.9219 10.8906 45.4062
L10.8906 53.9062
Q18.2656 57.375 23.7812 62.2969
Q29.2969 67.2344 31.5938 71.875
L37.25 71.875
z
" id="ArialMT-31"/>
      </defs>
      <g style="fill:#262626;" transform="translate(126.74265625 370.5578125)scale(0.1 -0.1)">
       <use xlink:href="#ArialMT-31"/>
       <use x="55.615234375" xlink:href="#ArialMT-30"/>
      </g>
     </g>
    </g>
    <g id="xtick_3">
     <g id="line2d_7">
      <path clip-path="url(#p3d386a08f4)" d="
M191.04 356.4
L191.04 39.6" style="fill:none;stroke:#ffffff;stroke-linecap:round;"/>
     </g>
     <g id="line2d_8">
      <g>
       <use style="fill:#262626;stroke:#262626;" x="191.04" xlink:href="#m219da94a98" y="356.4"/>
      </g>
     </g>
     <g id="line2d_9">
      <g>
       <use style="fill:#262626;stroke:#262626;" x="191.04" xlink:href="#m219da94a98" y="39.6"/>
      </g>
     </g>
     <g id="text_3">
      <!-- 20 -->
      <defs>
       <path d="
M50.3438 8.45312
L50.3438 0
L3.03125 0
Q2.9375 3.17188 4.04688 6.10938
Q5.85938 10.9375 9.82812 15.625
Q13.8125 20.3125 21.3438 26.4688
Q33.0156 36.0312 37.1094 41.625
Q41.2188 47.2188 41.2188 52.2031
Q41.2188 57.4219 37.4688 61
Q33.7344 64.5938 27.7344 64.5938
Q21.3906 64.5938 17.5781 60.7812
Q13.7656 56.9844 13.7188 50.25
L4.6875 51.1719
Q5.60938 61.2812 11.6562 66.5781
Q17.7188 71.875 27.9375 71.875
Q38.2344 71.875 44.2344 66.1562
Q50.25 60.4531 50.25 52
Q50.25 47.7031 48.4844 43.5469
Q46.7344 39.4062 42.6562 34.8125
Q38.5781 30.2188 29.1094 22.2188
Q21.1875 15.5781 18.9375 13.2031
Q16.7031 10.8438 15.2344 8.45312
z
" id="ArialMT-32"/>
      </defs>
      <g style="fill:#262626;" transform="translate(185.865 370.5578125)scale(0.1 -0.1)">
       <use xlink:href="#ArialMT-32"/>
       <use x="55.615234375" xlink:href="#ArialMT-30"/>
      </g>
     </g>
    </g>
    <g id="xtick_4">
     <g id="line2d_10">
      <path clip-path="url(#p3d386a08f4)" d="
M250.56 356.4
L250.56 39.6" style="fill:none;stroke:#ffffff;stroke-linecap:round;"/>
     </g>
     <g id="line2d_11">
      <g>
       <use style="fill:#262626;stroke:#262626;" x="250.56" xlink:href="#m219da94a98" y="356.4"/>
      </g>
     </g>
     <g id="line2d_12">
      <g>
       <use style="fill:#262626;stroke:#262626;" x="250.56" xlink:href="#m219da94a98" y="39.6"/>
      </g>
     </g>
     <g id="text_4">
      <!-- 30 -->
      <defs>
       <path d="
M4.20312 18.8906
L12.9844 20.0625
Q14.5 12.5938 18.1406 9.29688
Q21.7812 6 27 6
Q33.2031 6 37.4688 10.2969
Q41.75 14.5938 41.75 20.9531
Q41.75 27 37.7969 30.9219
Q33.8438 34.8594 27.7344 34.8594
Q25.25 34.8594 21.5312 33.8906
L22.5156 41.6094
Q23.3906 41.5 23.9219 41.5
Q29.5469 41.5 34.0312 44.4219
Q38.5312 47.3594 38.5312 53.4688
Q38.5312 58.2969 35.25 61.4688
Q31.9844 64.6562 26.8125 64.6562
Q21.6875 64.6562 18.2656 61.4219
Q14.8438 58.2031 13.875 51.7656
L5.07812 53.3281
Q6.6875 62.1562 12.3906 67.0156
Q18.1094 71.875 26.6094 71.875
Q32.4688 71.875 37.3906 69.3594
Q42.3281 66.8438 44.9375 62.5
Q47.5625 58.1562 47.5625 53.2656
Q47.5625 48.6406 45.0625 44.8281
Q42.5781 41.0156 37.7031 38.7656
Q44.0469 37.3125 47.5625 32.6875
Q51.0781 28.0781 51.0781 21.1406
Q51.0781 11.7656 44.2344 5.25
Q37.4062 -1.26562 26.9531 -1.26562
Q17.5312 -1.26562 11.2969 4.34375
Q5.07812 9.96875 4.20312 18.8906" id="ArialMT-33"/>
      </defs>
      <g style="fill:#262626;" transform="translate(245.44828125 370.5578125)scale(0.1 -0.1)">
       <use xlink:href="#ArialMT-33"/>
       <use x="55.615234375" xlink:href="#ArialMT-30"/>
      </g>
     </g>
    </g>
    <g id="xtick_5">
     <g id="line2d_13">
      <path clip-path="url(#p3d386a08f4)" d="
M310.08 356.4
L310.08 39.6" style="fill:none;stroke:#ffffff;stroke-linecap:round;"/>
     </g>
     <g id="line2d_14">
      <g>
       <use style="fill:#262626;stroke:#262626;" x="310.08" xlink:href="#m219da94a98" y="356.4"/>
      </g>
     </g>
     <g id="line2d_15">
      <g>
       <use style="fill:#262626;stroke:#262626;" x="310.08" xlink:href="#m219da94a98" y="39.6"/>
      </g>
     </g>
     <g id="text_5">
      <!-- 40 -->
      <defs>
       <path d="
M32.3281 0
L32.3281 17.1406
L1.26562 17.1406
L1.26562 25.2031
L33.9375 71.5781
L41.1094 71.5781
L41.1094 25.2031
L50.7812 25.2031
L50.7812 17.1406
L41.1094 17.1406
L41.1094 0
z

M32.3281 25.2031
L32.3281 57.4688
L9.90625 25.2031
z
" id="ArialMT-34"/>
      </defs>
      <g style="fill:#262626;" transform="translate(304.82140625 370.5578125)scale(0.1 -0.1)">
       <use xlink:href="#ArialMT-34"/>
       <use x="55.615234375" xlink:href="#ArialMT-30"/>
      </g>
     </g>
    </g>
    <g id="xtick_6">
     <g id="line2d_16">
      <path clip-path="url(#p3d386a08f4)" d="
M369.6 356.4
L369.6 39.6" style="fill:none;stroke:#ffffff;stroke-linecap:round;"/>
     </g>
     <g id="line2d_17">
      <g>
       <use style="fill:#262626;stroke:#262626;" x="369.6" xlink:href="#m219da94a98" y="356.4"/>
      </g>
     </g>
     <g id="line2d_18">
      <g>
       <use style="fill:#262626;stroke:#262626;" x="369.6" xlink:href="#m219da94a98" y="39.6"/>
      </g>
     </g>
     <g id="text_6">
      <!-- 50 -->
      <defs>
       <path d="
M4.15625 18.75
L13.375 19.5312
Q14.4062 12.7969 18.1406 9.39062
Q21.875 6 27.1562 6
Q33.5 6 37.8906 10.7812
Q42.2812 15.5781 42.2812 23.4844
Q42.2812 31 38.0625 35.3438
Q33.8438 39.7031 27 39.7031
Q22.75 39.7031 19.3281 37.7656
Q15.9219 35.8438 13.9688 32.7656
L5.71875 33.8438
L12.6406 70.6094
L48.25 70.6094
L48.25 62.2031
L19.6719 62.2031
L15.8281 42.9688
Q22.2656 47.4688 29.3438 47.4688
Q38.7188 47.4688 45.1562 40.9688
Q51.6094 34.4688 51.6094 24.2656
Q51.6094 14.5469 45.9531 7.46875
Q39.0625 -1.21875 27.1562 -1.21875
Q17.3906 -1.21875 11.2031 4.25
Q5.03125 9.71875 4.15625 18.75" id="ArialMT-35"/>
      </defs>
      <g style="fill:#262626;" transform="translate(364.4859375 370.5578125)scale(0.1 -0.1)">
       <use xlink:href="#ArialMT-35"/>
       <use x="55.615234375" xlink:href="#ArialMT-30"/>
      </g>
     </g>
    </g>
    <g id="xtick_7">
     <g id="line2d_19">
      <path clip-path="url(#p3d386a08f4)" d="
M429.12 356.4
L429.12 39.6" style="fill:none;stroke:#ffffff;stroke-linecap:round;"/>
     </g>
     <g id="line2d_20">
      <g>
       <use style="fill:#262626;stroke:#262626;" x="429.12" xlink:href="#m219da94a98" y="356.4"/>
      </g>
     </g>
     <g id="line2d_21">
      <g>
       <use style="fill:#262626;stroke:#262626;" x="429.12" xlink:href="#m219da94a98" y="39.6"/>
      </g>
     </g>
     <g id="text_7">
      <!-- 60 -->
      <defs>
       <path d="
M49.75 54.0469
L41.0156 53.375
Q39.8438 58.5469 37.7031 60.8906
Q34.125 64.6562 28.9062 64.6562
Q24.7031 64.6562 21.5312 62.3125
Q17.3906 59.2812 14.9844 53.4688
Q12.5938 47.6562 12.5 36.9219
Q15.6719 41.75 20.2656 44.0938
Q24.8594 46.4375 29.8906 46.4375
Q38.6719 46.4375 44.8438 39.9688
Q51.0312 33.5 51.0312 23.25
Q51.0312 16.5 48.125 10.7188
Q45.2188 4.9375 40.1406 1.85938
Q35.0625 -1.21875 28.6094 -1.21875
Q17.625 -1.21875 10.6875 6.85938
Q3.76562 14.9375 3.76562 33.5
Q3.76562 54.25 11.4219 63.6719
Q18.1094 71.875 29.4375 71.875
Q37.8906 71.875 43.2812 67.1406
Q48.6875 62.4062 49.75 54.0469
M13.875 23.1875
Q13.875 18.6562 15.7969 14.5
Q17.7188 10.3594 21.1875 8.17188
Q24.6562 6 28.4688 6
Q34.0312 6 38.0312 10.4844
Q42.0469 14.9844 42.0469 22.7031
Q42.0469 30.125 38.0781 34.3906
Q34.125 38.6719 28.125 38.6719
Q22.1719 38.6719 18.0156 34.3906
Q13.875 30.125 13.875 23.1875" id="ArialMT-36"/>
      </defs>
      <g style="fill:#262626;" transform="translate(423.98640625 370.5578125)scale(0.1 -0.1)">
       <use xlink:href="#ArialMT-36"/>
       <use x="55.615234375" xlink:href="#ArialMT-30"/>
      </g>
     </g>
    </g>
    <g id="xtick_8">
     <g id="line2d_22">
      <path clip-path="url(#p3d386a08f4)" d="
M488.64 356.4
L488.64 39.6" style="fill:none;stroke:#ffffff;stroke-linecap:round;"/>
     </g>
     <g id="line2d_23">
      <g>
       <use style="fill:#262626;stroke:#262626;" x="488.64" xlink:href="#m219da94a98" y="356.4"/>
      </g>
     </g>
     <g id="line2d_24">
      <g>
       <use style="fill:#262626;stroke:#262626;" x="488.64" xlink:href="#m219da94a98" y="39.6"/>
      </g>
     </g>
     <g id="text_8">
      <!-- 70 -->
      <defs>
       <path d="
M4.73438 62.2031
L4.73438 70.6562
L51.0781 70.6562
L51.0781 63.8125
Q44.2344 56.5469 37.5156 44.4844
Q30.8125 32.4219 27.1562 19.6719
Q24.5156 10.6875 23.7812 0
L14.75 0
Q14.8906 8.45312 18.0625 20.4062
Q21.2344 32.375 27.1719 43.4844
Q33.1094 54.5938 39.7969 62.2031
z
" id="ArialMT-37"/>
      </defs>
      <g style="fill:#262626;" transform="translate(483.55484375 370.5578125)scale(0.1 -0.1)">
       <use xlink:href="#ArialMT-37"/>
       <use x="55.615234375" xlink:href="#ArialMT-30"/>
      </g>
     </g>
    </g>
   </g>
   <g id="matplotlib.axis_2">
    <g id="ytick_1">
     <g id="line2d_25">
      <path clip-path="url(#p3d386a08f4)" d="
M72 356.4
L518.4 356.4" style="fill:none;stroke:#ffffff;stroke-linecap:round;"/>
     </g>
     <g id="line2d_26">
      <g>
       <use style="fill:#262626;stroke:#262626;" x="72.0" xlink:href="#m219da94a98" y="356.4"/>
      </g>
     </g>
     <g id="line2d_27">
      <g>
       <use style="fill:#262626;stroke:#262626;" x="518.4" xlink:href="#m219da94a98" y="356.4"/>
      </g>
     </g>
     <g id="text_9">
      <!-- 0 -->
      <g style="fill:#262626;" transform="translate(60.3328125 358.98515625)scale(0.1 -0.1)">
       <use xlink:href="#ArialMT-30"/>
      </g>
     </g>
    </g>
    <g id="ytick_2">
     <g id="line2d_28">
      <path clip-path="url(#p3d386a08f4)" d="
M72 293.04
L518.4 293.04" style="fill:none;stroke:#ffffff;stroke-linecap:round;"/>
     </g>
     <g id="line2d_29">
      <g>
       <use style="fill:#262626;stroke:#262626;" x="72.0" xlink:href="#m219da94a98" y="293.04"/>
      </g>
     </g>
     <g id="line2d_30">
      <g>
       <use style="fill:#262626;stroke:#262626;" x="518.4" xlink:href="#m219da94a98" y="293.04"/>
      </g>
     </g>
     <g id="text_10">
      <!-- 20 -->
      <g style="fill:#262626;" transform="translate(54.65 295.62515625)scale(0.1 -0.1)">
       <use xlink:href="#ArialMT-32"/>
       <use x="55.615234375" xlink:href="#ArialMT-30"/>
      </g>
     </g>
    </g>
    <g id="ytick_3">
     <g id="line2d_31">
      <path clip-path="url(#p3d386a08f4)" d="
M72 229.68
L518.4 229.68" style="fill:none;stroke:#ffffff;stroke-linecap:round;"/>
     </g>
     <g id="line2d_32">
      <g>
       <use style="fill:#262626;stroke:#262626;" x="72.0" xlink:href="#m219da94a98" y="229.68"/>
      </g>
     </g>
     <g id="line2d_33">
      <g>
       <use style="fill:#262626;stroke:#262626;" x="518.4" xlink:href="#m219da94a98" y="229.68"/>
      </g>
     </g>
     <g id="text_11">
      <!-- 40 -->
      <g style="fill:#262626;" transform="translate(54.4828125 232.26515625)scale(0.1 -0.1)">
       <use xlink:href="#ArialMT-34"/>
       <use x="55.615234375" xlink:href="#ArialMT-30"/>
      </g>
     </g>
    </g>
    <g id="ytick_4">
     <g id="line2d_34">
      <path clip-path="url(#p3d386a08f4)" d="
M72 166.32
L518.4 166.32" style="fill:none;stroke:#ffffff;stroke-linecap:round;"/>
     </g>
     <g id="line2d_35">
      <g>
       <use style="fill:#262626;stroke:#262626;" x="72.0" xlink:href="#m219da94a98" y="166.32"/>
      </g>
     </g>
     <g id="line2d_36">
      <g>
       <use style="fill:#262626;stroke:#262626;" x="518.4" xlink:href="#m219da94a98" y="166.32"/>
      </g>
     </g>
     <g id="text_12">
      <!-- 60 -->
      <g style="fill:#262626;" transform="translate(54.7328125 168.90515625)scale(0.1 -0.1)">
       <use xlink:href="#ArialMT-36"/>
       <use x="55.615234375" xlink:href="#ArialMT-30"/>
      </g>
     </g>
    </g>
    <g id="ytick_5">
     <g id="line2d_37">
      <path clip-path="url(#p3d386a08f4)" d="
M72 102.96
L518.4 102.96" style="fill:none;stroke:#ffffff;stroke-linecap:round;"/>
     </g>
     <g id="line2d_38">
      <g>
       <use style="fill:#262626;stroke:#262626;" x="72.0" xlink:href="#m219da94a98" y="102.96"/>
      </g>
     </g>
     <g id="line2d_39">
      <g>
       <use style="fill:#262626;stroke:#262626;" x="518.4" xlink:href="#m219da94a98" y="102.96"/>
      </g>
     </g>
     <g id="text_13">
      <!-- 80 -->
      <defs>
       <path d="
M17.6719 38.8125
Q12.2031 40.8281 9.5625 44.5312
Q6.9375 48.25 6.9375 53.4219
Q6.9375 61.2344 12.5469 66.5469
Q18.1719 71.875 27.4844 71.875
Q36.8594 71.875 42.5781 66.4219
Q48.2969 60.9844 48.2969 53.1719
Q48.2969 48.1875 45.6719 44.5
Q43.0625 40.8281 37.75 38.8125
Q44.3438 36.6719 47.7812 31.875
Q51.2188 27.0938 51.2188 20.4531
Q51.2188 11.2812 44.7188 5.03125
Q38.2344 -1.21875 27.6406 -1.21875
Q17.0469 -1.21875 10.5469 5.04688
Q4.04688 11.3281 4.04688 20.7031
Q4.04688 27.6875 7.59375 32.3906
Q11.1406 37.1094 17.6719 38.8125
M15.9219 53.7188
Q15.9219 48.6406 19.1875 45.4062
Q22.4688 42.1875 27.6875 42.1875
Q32.7656 42.1875 36.0156 45.375
Q39.2656 48.5781 39.2656 53.2188
Q39.2656 58.0625 35.9062 61.3594
Q32.5625 64.6562 27.5938 64.6562
Q22.5625 64.6562 19.2344 61.4219
Q15.9219 58.2031 15.9219 53.7188
M13.0938 20.6562
Q13.0938 16.8906 14.875 13.375
Q16.6562 9.85938 20.1719 7.92188
Q23.6875 6 27.7344 6
Q34.0312 6 38.125 10.0469
Q42.2344 14.1094 42.2344 20.3594
Q42.2344 26.7031 38.0156 30.8594
Q33.7969 35.0156 27.4375 35.0156
Q21.2344 35.0156 17.1562 30.9062
Q13.0938 26.8125 13.0938 20.6562" id="ArialMT-38"/>
      </defs>
      <g style="fill:#262626;" transform="translate(54.7609375 105.54515625)scale(0.1 -0.1)">
       <use xlink:href="#ArialMT-38"/>
       <use x="55.615234375" xlink:href="#ArialMT-30"/>
      </g>
     </g>
    </g>
    <g id="ytick_6">
     <g id="line2d_40">
      <path clip-path="url(#p3d386a08f4)" d="
M72 39.6
L518.4 39.6" style="fill:none;stroke:#ffffff;stroke-linecap:round;"/>
     </g>
     <g id="line2d_41">
      <g>
       <use style="fill:#262626;stroke:#262626;" x="72.0" xlink:href="#m219da94a98" y="39.6"/>
      </g>
     </g>
     <g id="line2d_42">
      <g>
       <use style="fill:#262626;stroke:#262626;" x="518.4" xlink:href="#m219da94a98" y="39.6"/>
      </g>
     </g>
     <g id="text_14">
      <!-- 100 -->
      <g style="fill:#262626;" transform="translate(49.884375 42.18515625)scale(0.1 -0.1)">
       <use xlink:href="#ArialMT-31"/>
       <use x="55.615234375" xlink:href="#ArialMT-30"/>
       <use x="111.23046875" xlink:href="#ArialMT-30"/>
      </g>
     </g>
    </g>
   </g>
   <g id="LineCollection_1">
    <defs>
     <path d="
M382.041 -39.6
L387.456 -41.4806
L390.884 -42.768
L393.408 -43.7132
L398.944 -45.936
L399.36 -46.1039
L405.312 -48.6124
L406.42 -49.104
L411.264 -51.2878
L413.339 -52.272
L417.216 -54.1536
L419.756 -55.44
L423.168 -57.2231
L425.727 -58.608
L429.12 -60.5165
L431.299 -61.776
L435.072 -64.061
L436.502 -64.944
L441.024 -67.8932
L441.356 -68.112
L445.967 -71.28
L446.976 -72.0152
L450.311 -74.448
L452.928 -76.5039
L454.354 -77.616
L458.158 -80.784
L458.88 -81.4188
L461.811 -83.952
L464.832 -86.8204
L465.156 -87.12
L468.434 -90.288
L470.784 -92.7942
L471.428 -93.456
L474.351 -96.624
L476.736 -99.4879
L477.002 -99.792
L479.645 -102.96
L482.023 -106.128
L482.688 -107.068
L484.36 -109.296
L486.545 -112.464
L488.522 -115.632
L488.64 -115.831
L490.538 -118.8
L492.378 -121.968
L494.049 -125.136
L494.592 -126.235
L495.706 -128.304
L497.279 -131.472
L498.709 -134.64
L500.009 -137.808
L500.544 -139.21
L501.289 -140.976
L502.522 -144.144
L503.64 -147.312
L504.654 -150.48
L505.572 -153.648
L506.401 -156.816
L506.496 -157.211
L507.248 -159.984
L508.02 -163.152
L508.708 -166.32
L509.316 -169.488
L509.85 -172.656
L510.313 -175.824
L510.708 -178.992
L511.038 -182.16
L511.305 -185.328
L511.511 -188.496
L511.657 -191.664
L511.745 -194.832
L511.774 -198
L511.745 -201.168
L511.657 -204.336
L511.511 -207.504
L511.305 -210.672
L511.038 -213.84
L510.708 -217.008
L510.313 -220.176
L509.85 -223.344
L509.316 -226.512
L508.708 -229.68
L508.02 -232.848
L507.248 -236.016
L506.496 -238.789
L506.401 -239.184
L505.572 -242.352
L504.654 -245.52
L503.64 -248.688
L502.522 -251.856
L501.289 -255.024
L500.544 -256.79
L500.009 -258.192
L498.709 -261.36
L497.279 -264.528
L495.706 -267.696
L494.592 -269.765
L494.049 -270.864
L492.378 -274.032
L490.538 -277.2
L488.64 -280.169
L488.522 -280.368
L486.545 -283.536
L484.36 -286.704
L482.688 -288.932
L482.023 -289.872
L479.645 -293.04
L477.002 -296.208
L476.736 -296.512
L474.351 -299.376
L471.428 -302.544
L470.784 -303.206
L468.434 -305.712
L465.156 -308.88
L464.832 -309.18
L461.811 -312.048
L458.88 -314.581
L458.158 -315.216
L454.354 -318.384
L452.928 -319.496
L450.311 -321.552
L446.976 -323.985
L445.967 -324.72
L441.356 -327.888
L441.024 -328.107
L436.502 -331.056
L435.072 -331.939
L431.299 -334.224
L429.12 -335.484
L425.727 -337.392
L423.168 -338.777
L419.756 -340.56
L417.216 -341.846
L413.339 -343.728
L411.264 -344.712
L406.42 -346.896
L405.312 -347.388
L399.36 -349.896
L398.944 -350.064
L393.408 -352.287
L390.884 -353.232
L387.456 -354.519
L382.041 -356.4
L381.504 -356.589
L375.552 -358.591
L372.402 -359.568
L369.6 -360.456
L363.648 -362.208
L361.736 -362.736
L357.696 -363.888
L351.744 -365.443
L349.868 -365.904
L345.792 -366.949
L339.84 -368.348
L336.512 -369.072" id="C0_0_b6174d4f2c"/>
     <path d="
M72 -272.143
L77.952 -273.993
L78.0886 -274.032
L83.904 -275.563
L89.856 -277.073
L90.4013 -277.2
L95.808 -278.339
L101.76 -279.515
L106.427 -280.368
L107.712 -280.578
L113.664 -281.444
L119.616 -282.221
L125.568 -282.902
L131.52 -283.482
L132.208 -283.536
L137.472 -283.896
L143.424 -284.203
L149.376 -284.41
L155.328 -284.514
L161.28 -284.514
L167.232 -284.41
L173.184 -284.203
L179.136 -283.896
L184.4 -283.536
L185.088 -283.482
L191.04 -282.902
L196.992 -282.221
L202.944 -281.444
L208.896 -280.578
L210.181 -280.368
L214.848 -279.515
L220.8 -278.339
L226.207 -277.2
L226.752 -277.073
L232.704 -275.563
L238.519 -274.032
L238.656 -273.993
L244.608 -272.143
L248.576 -270.864
L250.56 -270.17
L256.512 -267.989
L257.267 -267.696
L262.464 -265.53
L264.761 -264.528
L268.416 -262.829
L271.422 -261.36
L274.368 -259.834
L277.366 -258.192
L280.32 -256.487
L282.703 -255.024
L286.272 -252.728
L287.539 -251.856
L291.932 -248.688
L292.224 -248.465
L295.783 -245.52
L298.176 -243.465
L299.369 -242.352
L302.568 -239.184
L304.128 -237.556
L305.47 -236.016
L308.051 -232.848
L310.08 -230.21
L310.447 -229.68
L312.434 -226.512
L314.266 -223.344
L315.932 -220.176
L316.032 -219.957
L317.222 -217.008
L318.322 -213.84
L319.237 -210.672
L319.959 -207.504
L320.48 -204.336
L320.795 -201.168
L320.9 -198
L320.795 -194.832
L320.48 -191.664
L319.959 -188.496
L319.237 -185.328
L318.322 -182.16
L317.222 -178.992
L316.032 -176.043
L315.932 -175.824
L314.266 -172.656
L312.434 -169.488
L310.447 -166.32
L310.08 -165.79
L308.051 -163.152
L305.47 -159.984
L304.128 -158.444
L302.568 -156.816
L299.369 -153.648
L298.176 -152.535
L295.783 -150.48
L292.224 -147.535
L291.932 -147.312
L287.539 -144.144
L286.272 -143.272
L282.703 -140.976
L280.32 -139.513
L277.366 -137.808
L274.368 -136.166
L271.422 -134.64
L268.416 -133.171
L264.761 -131.472
L262.464 -130.47
L257.267 -128.304
L256.512 -128.011
L250.56 -125.83
L248.576 -125.136
L244.608 -123.857
L238.656 -122.007
L238.519 -121.968
L232.704 -120.437
L226.752 -118.927
L226.207 -118.8
L220.8 -117.661
L214.848 -116.485
L210.181 -115.632
L208.896 -115.422
L202.944 -114.556
L196.992 -113.779
L191.04 -113.098
L185.088 -112.518
L184.4 -112.464
L179.136 -112.104
L173.184 -111.797
L167.232 -111.59
L161.28 -111.486
L155.328 -111.486
L149.376 -111.59
L143.424 -111.797
L137.472 -112.104
L132.208 -112.464
L131.52 -112.518
L125.568 -113.098
L119.616 -113.779
L113.664 -114.556
L107.712 -115.422
L106.427 -115.632
L101.76 -116.485
L95.808 -117.661
L90.4013 -118.8
L89.856 -118.927
L83.904 -120.437
L78.0886 -121.968
L77.952 -122.007
L72 -123.857" id="C0_1_05fcf6e894"/>
    </defs>
    <g clip-path="url(#p3d386a08f4)">
     <use style="fill:none;stroke:#ffffff;stroke-width:1.75;" x="0.0" xlink:href="#C0_0_b6174d4f2c" y="396.0"/>
    </g>
    <g clip-path="url(#p3d386a08f4)">
     <use style="fill:none;stroke:#ffffff;stroke-width:1.75;" x="0.0" xlink:href="#C0_1_05fcf6e894" y="396.0"/>
    </g>
   </g>
   <g id="LineCollection_2">
    <defs>
     <path d="
M329.551 -39.6
L333.888 -40.6656
L339.84 -42.2406
L341.725 -42.768
L345.792 -43.8939
L351.744 -45.6676
L352.604 -45.936
L357.696 -47.5194
L362.432 -49.104
L363.648 -49.5122
L369.6 -51.6098
L371.38 -52.272
L375.552 -53.8385
L379.572 -55.44
L381.504 -56.2214
L387.098 -58.608
L387.456 -58.7637
L393.408 -61.4617
L394.073 -61.776
L399.36 -64.3446
L400.545 -64.944
L405.312 -67.4355
L406.562 -68.112
L411.264 -70.7558
L412.169 -71.28
L417.216 -74.3328
L417.402 -74.448
L422.326 -77.616
L423.168 -78.1845
L426.951 -80.784
L429.12 -82.3609
L431.282 -83.952
L435.072 -86.9202
L435.326 -87.12
L439.185 -90.288
L441.024 -91.9002
L442.799 -93.456
L446.187 -96.624
L446.976 -97.4004
L449.423 -99.792
L452.424 -102.96
L452.928 -103.518
L455.316 -106.128
L457.995 -109.296
L458.88 -110.404
L460.56 -112.464
L462.967 -115.632
L464.832 -118.283
L465.206 -118.8
L467.384 -121.968
L469.385 -125.136
L470.784 -127.519
L471.262 -128.304
L473.082 -131.472
L474.754 -134.64
L476.292 -137.808
L476.736 -138.782
L477.783 -140.976
L479.179 -144.144
L480.457 -147.312
L481.626 -150.48
L482.688 -153.627
L482.696 -153.648
L483.747 -156.816
L484.698 -159.984
L485.555 -163.152
L486.323 -166.32
L487.007 -169.488
L487.61 -172.656
L488.136 -175.824
L488.587 -178.992
L488.64 -179.436
L488.992 -182.16
L489.325 -185.328
L489.582 -188.496
L489.765 -191.664
L489.874 -194.832
L489.91 -198
L489.874 -201.168
L489.765 -204.336
L489.582 -207.504
L489.325 -210.672
L488.992 -213.84
L488.64 -216.564
L488.587 -217.008
L488.136 -220.176
L487.61 -223.344
L487.007 -226.512
L486.323 -229.68
L485.555 -232.848
L484.698 -236.016
L483.747 -239.184
L482.696 -242.352
L482.688 -242.373
L481.626 -245.52
L480.457 -248.688
L479.179 -251.856
L477.783 -255.024
L476.736 -257.218
L476.292 -258.192
L474.754 -261.36
L473.082 -264.528
L471.262 -267.696
L470.784 -268.481
L469.385 -270.864
L467.384 -274.032
L465.206 -277.2
L464.832 -277.717
L462.967 -280.368
L460.56 -283.536
L458.88 -285.596
L457.995 -286.704
L455.316 -289.872
L452.928 -292.482
L452.424 -293.04
L449.423 -296.208
L446.976 -298.6
L446.187 -299.376
L442.799 -302.544
L441.024 -304.1
L439.185 -305.712
L435.326 -308.88
L435.072 -309.08
L431.282 -312.048
L429.12 -313.639
L426.951 -315.216
L423.168 -317.815
L422.326 -318.384
L417.402 -321.552
L417.216 -321.667
L412.169 -324.72
L411.264 -325.244
L406.562 -327.888
L405.312 -328.564
L400.545 -331.056
L399.36 -331.655
L394.073 -334.224
L393.408 -334.538
L387.456 -337.236
L387.098 -337.392
L381.504 -339.779
L379.572 -340.56
L375.552 -342.162
L371.38 -343.728
L369.6 -344.39
L363.648 -346.488
L362.432 -346.896
L357.696 -348.481
L352.604 -350.064
L351.744 -350.332
L345.792 -352.106
L341.725 -353.232
L339.84 -353.759
L333.888 -355.334
L329.551 -356.4
L327.936 -356.804
L321.984 -358.213
L316.032 -359.508
L315.744 -359.568
L310.08 -360.775
L304.128 -361.942
L299.775 -362.736
L298.176 -363.038
L292.224 -364.096
L286.272 -365.07
L280.747 -365.904
L280.32 -365.971
L274.368 -366.858
L268.416 -367.671
L262.464 -368.418
L256.799 -369.072" id="C1_0_6574b90c0f"/>
     <path d="
M72 -285.743
L75.7291 -286.704
L77.952 -287.242
L83.904 -288.582
L89.856 -289.837
L90.0378 -289.872
L95.808 -290.914
L101.76 -291.899
L107.712 -292.796
L109.522 -293.04
L113.664 -293.558
L119.616 -294.212
L125.568 -294.775
L131.52 -295.248
L137.472 -295.628
L143.424 -295.915
L149.376 -296.106
L155.328 -296.202
L161.28 -296.202
L167.232 -296.106
L173.184 -295.915
L179.136 -295.628
L185.088 -295.248
L191.04 -294.775
L196.992 -294.212
L202.944 -293.558
L207.086 -293.04
L208.896 -292.796
L214.848 -291.899
L220.8 -290.914
L226.57 -289.872
L226.752 -289.837
L232.704 -288.582
L238.656 -287.242
L240.879 -286.704
L244.608 -285.743
L250.56 -284.118
L252.558 -283.536
L256.512 -282.316
L262.464 -280.387
L262.519 -280.368
L268.416 -278.219
L271.079 -277.2
L274.368 -275.872
L278.71 -274.032
L280.32 -273.312
L285.541 -270.864
L286.272 -270.503
L291.681 -267.696
L292.224 -267.4
L297.225 -264.528
L298.176 -263.954
L302.258 -261.36
L304.128 -260.113
L306.858 -258.192
L310.08 -255.814
L311.093 -255.024
L314.938 -251.856
L316.032 -250.904
L318.435 -248.688
L321.695 -245.52
L321.984 -245.22
L324.579 -242.352
L327.282 -239.184
L327.936 -238.36
L329.678 -236.016
L331.858 -232.848
L333.876 -229.68
L333.888 -229.659
L335.578 -226.512
L337.111 -223.344
L338.476 -220.176
L339.67 -217.008
L339.84 -216.477
L340.621 -213.84
L341.391 -210.672
L341.991 -207.504
L342.421 -204.336
L342.679 -201.168
L342.766 -198
L342.679 -194.832
L342.421 -191.664
L341.991 -188.496
L341.391 -185.328
L340.621 -182.16
L339.84 -179.523
L339.67 -178.992
L338.476 -175.824
L337.111 -172.656
L335.578 -169.488
L333.888 -166.341
L333.876 -166.32
L331.858 -163.152
L329.678 -159.984
L327.936 -157.64
L327.282 -156.816
L324.579 -153.648
L321.984 -150.78
L321.695 -150.48
L318.435 -147.312
L316.032 -145.096
L314.938 -144.144
L311.093 -140.976
L310.08 -140.186
L306.858 -137.808
L304.128 -135.887
L302.258 -134.64
L298.176 -132.046
L297.225 -131.472
L292.224 -128.6
L291.681 -128.304
L286.272 -125.497
L285.541 -125.136
L280.32 -122.688
L278.71 -121.968
L274.368 -120.128
L271.079 -118.8
L268.416 -117.781
L262.519 -115.632
L262.464 -115.613
L256.512 -113.684
L252.558 -112.464
L250.56 -111.882
L244.608 -110.257
L240.879 -109.296
L238.656 -108.758
L232.704 -107.418
L226.752 -106.163
L226.57 -106.128
L220.8 -105.086
L214.848 -104.101
L208.896 -103.204
L207.086 -102.96
L202.944 -102.442
L196.992 -101.788
L191.04 -101.225
L185.088 -100.752
L179.136 -100.372
L173.184 -100.085
L167.232 -99.8936
L161.28 -99.7975
L155.328 -99.7975
L149.376 -99.8936
L143.424 -100.085
L137.472 -100.372
L131.52 -100.752
L125.568 -101.225
L119.616 -101.788
L113.664 -102.442
L109.522 -102.96
L107.712 -103.204
L101.76 -104.101
L95.808 -105.086
L90.0378 -106.128
L89.856 -106.163
L83.904 -107.418
L77.952 -108.758
L75.7291 -109.296
L72 -110.257" id="C1_1_286ed2bed1"/>
    </defs>
    <g clip-path="url(#p3d386a08f4)">
     <use style="fill:none;stroke:#d9d9d9;stroke-width:1.75;" x="0.0" xlink:href="#C1_0_6574b90c0f" y="396.0"/>
    </g>
    <g clip-path="url(#p3d386a08f4)">
     <use style="fill:none;stroke:#d9d9d9;stroke-width:1.75;" x="0.0" xlink:href="#C1_1_286ed2bed1" y="396.0"/>
    </g>
   </g>
   <g id="LineCollection_3">
    <defs>
     <path d="
M279.121 -39.6
L280.32 -39.7952
L286.272 -40.819
L292.224 -41.9143
L296.571 -42.768
L298.176 -43.0844
L304.128 -44.3189
L310.08 -45.6385
L311.355 -45.936
L316.032 -47.0342
L321.984 -48.5181
L324.213 -49.104
L327.936 -50.0929
L333.888 -51.7642
L335.609 -52.272
L339.84 -53.5374
L345.792 -55.4246
L345.839 -55.44
L351.744 -57.4223
L355.089 -58.608
L357.696 -59.5516
L363.541 -61.776
L363.648 -61.8177
L369.6 -64.2274
L371.29 -64.944
L375.552 -66.8002
L378.437 -68.112
L381.504 -69.5493
L385.053 -71.28
L387.456 -72.4913
L391.197 -74.448
L393.408 -75.6464
L396.919 -77.616
L399.36 -79.0387
L402.261 -80.784
L405.312 -82.697
L407.257 -83.952
L411.264 -86.6557
L411.935 -87.12
L416.323 -90.288
L417.216 -90.961
L420.451 -93.456
L423.168 -95.6642
L424.327 -96.624
L427.972 -99.792
L429.12 -100.838
L431.411 -102.96
L434.639 -106.128
L435.072 -106.572
L437.694 -109.296
L440.558 -112.464
L441.024 -113.004
L443.272 -115.632
L445.814 -118.8
L446.976 -120.327
L448.218 -121.968
L450.477 -125.136
L452.591 -128.304
L452.928 -128.835
L454.596 -131.472
L456.468 -134.64
L458.213 -137.808
L458.88 -139.093
L459.859 -140.976
L461.396 -144.144
L462.818 -147.312
L464.135 -150.48
L464.832 -152.287
L465.362 -153.648
L466.499 -156.816
L467.537 -159.984
L468.48 -163.152
L469.332 -166.32
L470.096 -169.488
L470.775 -172.656
L470.784 -172.701
L471.383 -175.824
L471.906 -178.992
L472.345 -182.16
L472.702 -185.328
L472.978 -188.496
L473.175 -191.664
L473.293 -194.832
L473.332 -198
L473.293 -201.168
L473.175 -204.336
L472.978 -207.504
L472.702 -210.672
L472.345 -213.84
L471.906 -217.008
L471.383 -220.176
L470.784 -223.299
L470.775 -223.344
L470.096 -226.512
L469.332 -229.68
L468.48 -232.848
L467.537 -236.016
L466.499 -239.184
L465.362 -242.352
L464.832 -243.713
L464.135 -245.52
L462.818 -248.688
L461.396 -251.856
L459.859 -255.024
L458.88 -256.907
L458.213 -258.192
L456.468 -261.36
L454.596 -264.528
L452.928 -267.165
L452.591 -267.696
L450.477 -270.864
L448.218 -274.032
L446.976 -275.673
L445.814 -277.2
L443.272 -280.368
L441.024 -282.996
L440.558 -283.536
L437.694 -286.704
L435.072 -289.428
L434.639 -289.872
L431.411 -293.04
L429.12 -295.162
L427.972 -296.208
L424.327 -299.376
L423.168 -300.336
L420.451 -302.544
L417.216 -305.039
L416.323 -305.712
L411.935 -308.88
L411.264 -309.344
L407.257 -312.048
L405.312 -313.303
L402.261 -315.216
L399.36 -316.961
L396.919 -318.384
L393.408 -320.354
L391.197 -321.552
L387.456 -323.509
L385.053 -324.72
L381.504 -326.451
L378.437 -327.888
L375.552 -329.2
L371.29 -331.056
L369.6 -331.773
L363.648 -334.182
L363.541 -334.224
L357.696 -336.448
L355.089 -337.392
L351.744 -338.578
L345.839 -340.56
L345.792 -340.575
L339.84 -342.463
L335.609 -343.728
L333.888 -344.236
L327.936 -345.907
L324.213 -346.896
L321.984 -347.482
L316.032 -348.966
L311.355 -350.064
L310.08 -350.361
L304.128 -351.681
L298.176 -352.916
L296.571 -353.232
L292.224 -354.086
L286.272 -355.181
L280.32 -356.205
L279.121 -356.4
L274.368 -357.174
L268.416 -358.078
L262.464 -358.919
L257.531 -359.568
L256.512 -359.703
L250.56 -360.44
L244.608 -361.119
L238.656 -361.744
L232.704 -362.316
L227.94 -362.736
L226.752 -362.842
L220.8 -363.326
L214.848 -363.761
L208.896 -364.148
L202.944 -364.489
L196.992 -364.785
L191.04 -365.038
L185.088 -365.247
L179.136 -365.414
L173.184 -365.539
L167.232 -365.622
L161.28 -365.664
L155.328 -365.664
L149.376 -365.622
L143.424 -365.539
L137.472 -365.414
L131.52 -365.247
L125.568 -365.038
L119.616 -364.785
L113.664 -364.489
L107.712 -364.148
L101.76 -363.761
L95.808 -363.326
L89.856 -362.842
L88.6676 -362.736
L83.904 -362.316
L77.952 -361.744
L72 -361.119" id="C2_0_0c8366bd4c"/>
     <path d="
M72 -295.733
L74.1135 -296.208
L77.952 -297.044
L83.904 -298.236
L89.856 -299.331
L90.123 -299.376
L95.808 -300.305
L101.76 -301.181
L107.712 -301.966
L112.654 -302.544
L113.664 -302.659
L119.616 -303.251
L125.568 -303.755
L131.52 -304.173
L137.472 -304.507
L143.424 -304.757
L149.376 -304.923
L155.328 -305.007
L161.28 -305.007
L167.232 -304.923
L173.184 -304.757
L179.136 -304.507
L185.088 -304.173
L191.04 -303.755
L196.992 -303.251
L202.944 -302.659
L203.954 -302.544
L208.896 -301.966
L214.848 -301.181
L220.8 -300.305
L226.485 -299.376
L226.752 -299.331
L232.704 -298.236
L238.656 -297.044
L242.495 -296.208
L244.608 -295.733
L250.56 -294.295
L255.387 -293.04
L256.512 -292.737
L262.464 -291.029
L266.237 -289.872
L268.416 -289.179
L274.368 -287.171
L275.672 -286.704
L280.32 -284.977
L283.985 -283.536
L286.272 -282.6
L291.441 -280.368
L292.224 -280.015
L298.165 -277.2
L298.176 -277.195
L304.128 -274.1
L304.253 -274.032
L309.803 -270.864
L310.08 -270.698
L314.873 -267.696
L316.032 -266.932
L319.528 -264.528
L321.984 -262.744
L323.817 -261.36
L327.773 -258.192
L327.936 -258.054
L331.38 -255.024
L333.888 -252.672
L334.729 -251.856
L337.784 -248.688
L339.84 -246.403
L340.61 -245.52
L343.175 -242.352
L345.545 -239.184
L345.792 -238.827
L347.676 -236.016
L349.611 -232.848
L351.37 -229.68
L351.744 -228.935
L352.925 -226.512
L354.298 -223.344
L355.502 -220.176
L356.542 -217.008
L357.421 -213.84
L357.696 -212.627
L358.129 -210.672
L358.672 -207.504
L359.059 -204.336
L359.291 -201.168
L359.369 -198
L359.291 -194.832
L359.059 -191.664
L358.672 -188.496
L358.129 -185.328
L357.696 -183.373
L357.421 -182.16
L356.542 -178.992
L355.502 -175.824
L354.298 -172.656
L352.925 -169.488
L351.744 -167.065
L351.37 -166.32
L349.611 -163.152
L347.676 -159.984
L345.792 -157.173
L345.545 -156.816
L343.175 -153.648
L340.61 -150.48
L339.84 -149.597
L337.784 -147.312
L334.729 -144.144
L333.888 -143.328
L331.38 -140.976
L327.936 -137.946
L327.773 -137.808
L323.817 -134.64
L321.984 -133.256
L319.528 -131.472
L316.032 -129.068
L314.873 -128.304
L310.08 -125.302
L309.803 -125.136
L304.253 -121.968
L304.128 -121.9
L298.176 -118.805
L298.165 -118.8
L292.224 -115.985
L291.441 -115.632
L286.272 -113.4
L283.985 -112.464
L280.32 -111.023
L275.672 -109.296
L274.368 -108.829
L268.416 -106.821
L266.237 -106.128
L262.464 -104.971
L256.512 -103.263
L255.387 -102.96
L250.56 -101.705
L244.608 -100.267
L242.495 -99.792
L238.656 -98.9564
L232.704 -97.7637
L226.752 -96.669
L226.485 -96.624
L220.8 -95.6952
L214.848 -94.8189
L208.896 -94.0341
L203.954 -93.456
L202.944 -93.3408
L196.992 -92.7491
L191.04 -92.2451
L185.088 -91.8267
L179.136 -91.493
L173.184 -91.243
L167.232 -91.0766
L161.28 -90.9934
L155.328 -90.9934
L149.376 -91.0766
L143.424 -91.243
L137.472 -91.493
L131.52 -91.8267
L125.568 -92.2451
L119.616 -92.7491
L113.664 -93.3408
L112.654 -93.456
L107.712 -94.0341
L101.76 -94.8189
L95.808 -95.6952
L90.123 -96.624
L89.856 -96.669
L83.904 -97.7637
L77.952 -98.9564
L74.1135 -99.792
L72 -100.267" id="C2_1_ff3f457088"/>
    </defs>
    <g clip-path="url(#p3d386a08f4)">
     <use style="fill:none;stroke:#959595;stroke-width:1.75;" x="0.0" xlink:href="#C2_0_0c8366bd4c" y="396.0"/>
    </g>
    <g clip-path="url(#p3d386a08f4)">
     <use style="fill:none;stroke:#959595;stroke-width:1.75;" x="0.0" xlink:href="#C2_1_ff3f457088" y="396.0"/>
    </g>
   </g>
   <g id="LineCollection_4">
    <defs>
     <path d="
M119.679 -39.6
L119.616 -39.603
L113.664 -39.9389
L107.712 -40.3215
L101.76 -40.7508
L95.808 -41.2271
L89.856 -41.751
L83.904 -42.3236
L79.6572 -42.768
L77.952 -42.9553
L72 -43.6582" id="C3_0_b37f9f811e"/>
     <path d="
M196.929 -39.6
L196.992 -39.603
L202.944 -39.9389
L208.896 -40.3215
L214.848 -40.7508
L220.8 -41.2271
L226.752 -41.751
L232.704 -42.3236
L236.951 -42.768
L238.656 -42.9553
L244.608 -43.6582
L250.56 -44.4087
L256.512 -45.2093
L261.577 -45.936
L262.464 -46.0695
L268.416 -47.0175
L274.368 -48.0149
L280.32 -49.0674
L280.515 -49.104
L286.272 -50.226
L292.224 -51.4377
L296.126 -52.272
L298.176 -52.7301
L304.128 -54.117
L309.57 -55.44
L310.08 -55.5697
L316.032 -57.1456
L321.346 -58.608
L321.984 -58.7912
L327.936 -60.5686
L331.827 -61.776
L333.888 -62.442
L339.84 -64.4354
L341.298 -64.944
L345.792 -66.5717
L349.896 -68.112
L351.744 -68.8335
L357.696 -71.2384
L357.795 -71.28
L363.648 -73.8308
L365.014 -74.448
L369.6 -76.5982
L371.694 -77.616
L375.552 -79.5608
L377.892 -80.784
L381.504 -82.7415
L383.658 -83.952
L387.456 -86.1654
L389.035 -87.12
L393.408 -89.8604
L394.066 -90.288
L398.758 -93.456
L399.36 -93.8767
L403.136 -96.624
L405.312 -98.263
L407.265 -99.792
L411.164 -102.96
L411.264 -103.044
L414.77 -106.128
L417.216 -108.357
L418.206 -109.296
L421.408 -112.464
L423.168 -114.271
L424.441 -115.632
L427.274 -118.8
L429.12 -120.946
L429.964 -121.968
L432.455 -125.136
L434.844 -128.304
L435.072 -128.62
L437.033 -131.472
L439.104 -134.64
L441.024 -137.716
L441.079 -137.808
L442.865 -140.976
L444.55 -144.144
L446.142 -147.312
L446.976 -149.075
L447.611 -150.48
L448.943 -153.648
L450.181 -156.816
L451.328 -159.984
L452.387 -163.152
L452.928 -164.921
L453.336 -166.32
L454.168 -169.488
L454.911 -172.656
L455.566 -175.824
L456.133 -178.992
L456.613 -182.16
L457.007 -185.328
L457.313 -188.496
L457.531 -191.664
L457.663 -194.832
L457.707 -198
L457.663 -201.168
L457.531 -204.336
L457.313 -207.504
L457.007 -210.672
L456.613 -213.84
L456.133 -217.008
L455.566 -220.176
L454.911 -223.344
L454.168 -226.512
L453.336 -229.68
L452.928 -231.079
L452.387 -232.848
L451.328 -236.016
L450.181 -239.184
L448.943 -242.352
L447.611 -245.52
L446.976 -246.925
L446.142 -248.688
L444.55 -251.856
L442.865 -255.024
L441.079 -258.192
L441.024 -258.284
L439.104 -261.36
L437.033 -264.528
L435.072 -267.38
L434.844 -267.696
L432.455 -270.864
L429.964 -274.032
L429.12 -275.054
L427.274 -277.2
L424.441 -280.368
L423.168 -281.729
L421.408 -283.536
L418.206 -286.704
L417.216 -287.643
L414.77 -289.872
L411.264 -292.956
L411.164 -293.04
L407.265 -296.208
L405.312 -297.737
L403.136 -299.376
L399.36 -302.123
L398.758 -302.544
L394.066 -305.712
L393.408 -306.14
L389.035 -308.88
L387.456 -309.835
L383.658 -312.048
L381.504 -313.259
L377.892 -315.216
L375.552 -316.439
L371.694 -318.384
L369.6 -319.402
L365.014 -321.552
L363.648 -322.169
L357.795 -324.72
L357.696 -324.762
L351.744 -327.167
L349.896 -327.888
L345.792 -329.428
L341.298 -331.056
L339.84 -331.565
L333.888 -333.558
L331.827 -334.224
L327.936 -335.431
L321.984 -337.209
L321.346 -337.392
L316.032 -338.854
L310.08 -340.43
L309.57 -340.56
L304.128 -341.883
L298.176 -343.27
L296.126 -343.728
L292.224 -344.562
L286.272 -345.774
L280.515 -346.896
L280.32 -346.933
L274.368 -347.985
L268.416 -348.983
L262.464 -349.93
L261.577 -350.064
L256.512 -350.791
L250.56 -351.591
L244.608 -352.342
L238.656 -353.045
L236.951 -353.232
L232.704 -353.676
L226.752 -354.249
L220.8 -354.773
L214.848 -355.249
L208.896 -355.679
L202.944 -356.061
L196.992 -356.397
L196.929 -356.4
L191.04 -356.671
L185.088 -356.898
L179.136 -357.08
L173.184 -357.216
L167.232 -357.307
L161.28 -357.352
L155.328 -357.352
L149.376 -357.307
L143.424 -357.216
L137.472 -357.08
L131.52 -356.898
L125.568 -356.671
L119.679 -356.4
L119.616 -356.397
L113.664 -356.061
L107.712 -355.679
L101.76 -355.249
L95.808 -354.773
L89.856 -354.249
L83.904 -353.676
L79.6572 -353.232
L77.952 -353.045
L72 -352.342" id="C3_1_80abc2c9f3"/>
     <path d="
M72 -304.964
L75.8174 -305.712
L77.952 -306.136
L83.904 -307.217
L89.856 -308.185
L94.6002 -308.88
L95.808 -309.061
L101.76 -309.866
L107.712 -310.573
L113.664 -311.19
L119.616 -311.721
L123.923 -312.048
L125.568 -312.178
L131.52 -312.567
L137.472 -312.874
L143.424 -313.102
L149.376 -313.253
L155.328 -313.329
L161.28 -313.329
L167.232 -313.253
L173.184 -313.102
L179.136 -312.874
L185.088 -312.567
L191.04 -312.178
L192.685 -312.048
L196.992 -311.721
L202.944 -311.19
L208.896 -310.573
L214.848 -309.866
L220.8 -309.061
L222.008 -308.88
L226.752 -308.185
L232.704 -307.217
L238.656 -306.136
L240.791 -305.712
L244.608 -304.964
L250.56 -303.69
L255.415 -302.544
L256.512 -302.286
L262.464 -300.787
L267.566 -299.376
L268.416 -299.14
L274.368 -297.38
L278.018 -296.208
L280.32 -295.46
L286.272 -293.388
L287.213 -293.04
L292.224 -291.154
L295.406 -289.872
L298.176 -288.727
L302.785 -286.704
L304.128 -286.095
L309.479 -283.536
L310.08 -283.237
L315.588 -280.368
L316.032 -280.126
L321.188 -277.2
L321.984 -276.725
L326.339 -274.032
L327.936 -272.987
L331.087 -270.864
L333.888 -268.853
L335.463 -267.696
L339.494 -264.528
L339.84 -264.24
L343.252 -261.36
L345.792 -259.033
L346.704 -258.192
L349.906 -255.024
L351.744 -253.051
L352.858 -251.856
L355.588 -248.688
L357.696 -246.003
L358.079 -245.52
L360.406 -242.352
L362.5 -239.184
L363.648 -237.277
L364.422 -236.016
L366.183 -232.848
L367.749 -229.68
L369.136 -226.512
L369.6 -225.32
L370.393 -223.344
L371.497 -220.176
L372.438 -217.008
L373.222 -213.84
L373.857 -210.672
L374.347 -207.504
L374.695 -204.336
L374.903 -201.168
L374.972 -198
L374.903 -194.832
L374.695 -191.664
L374.347 -188.496
L373.857 -185.328
L373.222 -182.16
L372.438 -178.992
L371.497 -175.824
L370.393 -172.656
L369.6 -170.68
L369.136 -169.488
L367.749 -166.32
L366.183 -163.152
L364.422 -159.984
L363.648 -158.723
L362.5 -156.816
L360.406 -153.648
L358.079 -150.48
L357.696 -149.997
L355.588 -147.312
L352.858 -144.144
L351.744 -142.949
L349.906 -140.976
L346.704 -137.808
L345.792 -136.967
L343.252 -134.64
L339.84 -131.76
L339.494 -131.472
L335.463 -128.304
L333.888 -127.147
L331.087 -125.136
L327.936 -123.013
L326.339 -121.968
L321.984 -119.275
L321.188 -118.8
L316.032 -115.874
L315.588 -115.632
L310.08 -112.763
L309.479 -112.464
L304.128 -109.905
L302.785 -109.296
L298.176 -107.273
L295.406 -106.128
L292.224 -104.846
L287.213 -102.96
L286.272 -102.612
L280.32 -100.54
L278.018 -99.792
L274.368 -98.6203
L268.416 -96.8603
L267.566 -96.624
L262.464 -95.2127
L256.512 -93.714
L255.415 -93.456
L250.56 -92.3105
L244.608 -91.0359
L240.791 -90.288
L238.656 -89.8639
L232.704 -88.7831
L226.752 -87.8147
L222.008 -87.12
L220.8 -86.9387
L214.848 -86.1335
L208.896 -85.4265
L202.944 -84.8101
L196.992 -84.2788
L192.685 -83.952
L191.04 -83.8223
L185.088 -83.4334
L179.136 -83.1262
L173.184 -82.8979
L167.232 -82.7467
L161.28 -82.6714
L155.328 -82.6714
L149.376 -82.7467
L143.424 -82.8979
L137.472 -83.1262
L131.52 -83.4334
L125.568 -83.8223
L123.923 -83.952
L119.616 -84.2788
L113.664 -84.8101
L107.712 -85.4265
L101.76 -86.1335
L95.808 -86.9387
L94.6002 -87.12
L89.856 -87.8147
L83.904 -88.7831
L77.952 -89.8639
L75.8174 -90.288
L72 -91.0359" id="C3_2_dfb6fe3cd4"/>
    </defs>
    <g clip-path="url(#p3d386a08f4)">
     <use style="fill:none;stroke:#515151;stroke-width:1.75;" x="0.0" xlink:href="#C3_0_b37f9f811e" y="396.0"/>
    </g>
    <g clip-path="url(#p3d386a08f4)">
     <use style="fill:none;stroke:#515151;stroke-width:1.75;" x="0.0" xlink:href="#C3_1_80abc2c9f3" y="396.0"/>
    </g>
    <g clip-path="url(#p3d386a08f4)">
     <use style="fill:none;stroke:#515151;stroke-width:1.75;" x="0.0" xlink:href="#C3_2_dfb6fe3cd4" y="396.0"/>
    </g>
   </g>
   <g id="LineCollection_5">
    <defs>
     <path d="
M72 -54.1549
L77.952 -53.3781
L83.904 -52.6261
L86.8632 -52.272
L89.856 -51.9693
L95.808 -51.4144
L101.76 -50.8992
L107.712 -50.4244
L113.664 -49.9921
L119.616 -49.6043
L125.568 -49.264
L128.878 -49.104
L131.52 -48.9989
L137.472 -48.8093
L143.424 -48.6664
L149.376 -48.5707
L155.328 -48.5227
L161.28 -48.5227
L167.232 -48.5707
L173.184 -48.6664
L179.136 -48.8093
L185.088 -48.9989
L187.73 -49.104
L191.04 -49.264
L196.992 -49.6043
L202.944 -49.9921
L208.896 -50.4244
L214.848 -50.8992
L220.8 -51.4144
L226.752 -51.9693
L229.745 -52.272
L232.704 -52.6261
L238.656 -53.3781
L244.608 -54.1549
L250.56 -54.9584
L253.945 -55.44
L256.512 -55.8647
L262.464 -56.8821
L268.416 -57.9074
L272.355 -58.608
L274.368 -59.0189
L280.32 -60.2651
L286.272 -61.5036
L287.52 -61.776
L292.224 -62.9283
L298.176 -64.3726
L300.462 -64.944
L304.128 -65.9638
L310.08 -67.6107
L311.837 -68.112
L316.032 -69.4264
L321.984 -71.2635
L322.035 -71.28
L327.936 -73.3517
L331.063 -74.448
L333.888 -75.518
L339.421 -77.616
L339.84 -77.7871
L345.792 -80.2819
L346.962 -80.784
L351.744 -82.9526
L353.898 -83.952
L357.696 -85.8021
L360.322 -87.12
L363.648 -88.8591
L366.28 -90.288
L369.6 -92.1513
L371.822 -93.456
L375.552 -95.7039
L377.001 -96.624
L381.504 -99.5401
L381.871 -99.792
L386.318 -102.96
L387.456 -103.78
L390.477 -106.128
L393.408 -108.404
L394.469 -109.296
L398.149 -112.464
L399.36 -113.516
L401.576 -115.632
L404.909 -118.8
L405.312 -119.194
L407.858 -121.968
L410.803 -125.136
L411.264 -125.645
L413.395 -128.304
L415.929 -131.472
L417.216 -133.098
L418.291 -134.64
L420.421 -137.808
L422.554 -140.976
L423.168 -141.919
L424.421 -144.144
L426.138 -147.312
L427.823 -150.48
L429.12 -152.982
L429.416 -153.648
L430.724 -156.816
L431.967 -159.984
L433.148 -163.152
L434.263 -166.32
L435.072 -168.783
L435.266 -169.488
L436.045 -172.656
L436.741 -175.824
L437.354 -178.992
L437.879 -182.16
L438.315 -185.328
L438.657 -188.496
L438.904 -191.664
L439.053 -194.832
L439.103 -198
L439.053 -201.168
L438.904 -204.336
L438.657 -207.504
L438.315 -210.672
L437.879 -213.84
L437.354 -217.008
L436.741 -220.176
L436.045 -223.344
L435.266 -226.512
L435.072 -227.217
L434.263 -229.68
L433.148 -232.848
L431.967 -236.016
L430.724 -239.184
L429.416 -242.352
L429.12 -243.018
L427.823 -245.52
L426.138 -248.688
L424.421 -251.856
L423.168 -254.081
L422.554 -255.024
L420.421 -258.192
L418.291 -261.36
L417.216 -262.902
L415.929 -264.528
L413.395 -267.696
L411.264 -270.355
L410.803 -270.864
L407.858 -274.032
L405.312 -276.806
L404.909 -277.2
L401.576 -280.368
L399.36 -282.484
L398.149 -283.536
L394.469 -286.704
L393.408 -287.596
L390.477 -289.872
L387.456 -292.22
L386.318 -293.04
L381.871 -296.208
L381.504 -296.46
L377.001 -299.376
L375.552 -300.296
L371.822 -302.544
L369.6 -303.849
L366.28 -305.712
L363.648 -307.141
L360.322 -308.88
L357.696 -310.198
L353.898 -312.048
L351.744 -313.047
L346.962 -315.216
L345.792 -315.718
L339.84 -318.213
L339.421 -318.384
L333.888 -320.482
L331.063 -321.552
L327.936 -322.648
L322.035 -324.72
L321.984 -324.737
L316.032 -326.574
L311.837 -327.888
L310.08 -328.389
L304.128 -330.036
L300.462 -331.056
L298.176 -331.627
L292.224 -333.072
L287.52 -334.224
L286.272 -334.496
L280.32 -335.735
L274.368 -336.981
L272.355 -337.392
L268.416 -338.093
L262.464 -339.118
L256.512 -340.135
L253.945 -340.56
L250.56 -341.042
L244.608 -341.845
L238.656 -342.622
L232.704 -343.374
L229.745 -343.728
L226.752 -344.031
L220.8 -344.586
L214.848 -345.101
L208.896 -345.576
L202.944 -346.008
L196.992 -346.396
L191.04 -346.736
L187.73 -346.896
L185.088 -347.001
L179.136 -347.191
L173.184 -347.334
L167.232 -347.429
L161.28 -347.477
L155.328 -347.477
L149.376 -347.429
L143.424 -347.334
L137.472 -347.191
L131.52 -347.001
L128.878 -346.896
L125.568 -346.736
L119.616 -346.396
L113.664 -346.008
L107.712 -345.576
L101.76 -345.101
L95.808 -344.586
L89.856 -344.031
L86.8632 -343.728
L83.904 -343.374
L77.952 -342.622
L72 -341.845" id="C4_0_0f5f5b8b51"/>
     <path d="
M72 -315.776
L77.952 -316.843
L83.904 -317.762
L88.4703 -318.384
L89.856 -318.6
L95.808 -319.434
L101.76 -320.145
L107.712 -320.754
L113.664 -321.273
L117.397 -321.552
L119.616 -321.749
L125.568 -322.193
L131.52 -322.55
L137.472 -322.829
L143.424 -323.033
L149.376 -323.167
L155.328 -323.234
L161.28 -323.234
L167.232 -323.167
L173.184 -323.033
L179.136 -322.829
L185.088 -322.55
L191.04 -322.193
L196.992 -321.749
L199.211 -321.552
L202.944 -321.273
L208.896 -320.754
L214.848 -320.145
L220.8 -319.434
L226.752 -318.6
L228.138 -318.384
L232.704 -317.762
L238.656 -316.843
L244.608 -315.776
L247.396 -315.216
L250.56 -314.646
L256.512 -313.453
L262.464 -312.06
L262.51 -312.048
L268.416 -310.698
L274.368 -309.109
L275.165 -308.88
L280.32 -307.496
L286.065 -305.712
L286.272 -305.65
L292.224 -303.785
L295.733 -302.544
L298.176 -301.704
L304.128 -299.437
L304.281 -299.376
L310.08 -297.081
L312.101 -296.208
L316.032 -294.502
L319.169 -293.04
L321.984 -291.702
L325.624 -289.872
L327.936 -288.669
L331.558 -286.704
L333.888 -285.377
L337.033 -283.536
L339.84 -281.785
L342.084 -280.368
L345.792 -277.834
L346.723 -277.2
L351.047 -274.032
L351.744 -273.485
L355.145 -270.864
L357.696 -268.659
L358.854 -267.696
L362.337 -264.528
L363.648 -263.214
L365.603 -261.36
L368.564 -258.192
L369.6 -256.977
L371.393 -255.024
L373.965 -251.856
L375.552 -249.651
L376.317 -248.688
L378.598 -245.52
L380.562 -242.352
L381.504 -240.66
L382.432 -239.184
L384.2 -236.016
L385.721 -232.848
L387.035 -229.68
L387.456 -228.542
L388.327 -226.512
L389.498 -223.344
L390.482 -220.176
L391.304 -217.008
L391.978 -213.84
L392.517 -210.672
L392.928 -207.504
L393.219 -204.336
L393.392 -201.168
L393.408 -200.262
L393.458 -198
L393.408 -195.738
L393.392 -194.832
L393.219 -191.664
L392.928 -188.496
L392.517 -185.328
L391.978 -182.16
L391.304 -178.992
L390.482 -175.824
L389.498 -172.656
L388.327 -169.488
L387.456 -167.458
L387.035 -166.32
L385.721 -163.152
L384.2 -159.984
L382.432 -156.816
L381.504 -155.34
L380.562 -153.648
L378.598 -150.48
L376.317 -147.312
L375.552 -146.349
L373.965 -144.144
L371.393 -140.976
L369.6 -139.023
L368.564 -137.808
L365.603 -134.64
L363.648 -132.786
L362.337 -131.472
L358.854 -128.304
L357.696 -127.341
L355.145 -125.136
L351.744 -122.515
L351.047 -121.968
L346.723 -118.8
L345.792 -118.166
L342.084 -115.632
L339.84 -114.215
L337.033 -112.464
L333.888 -110.623
L331.558 -109.296
L327.936 -107.331
L325.624 -106.128
L321.984 -104.298
L319.169 -102.96
L316.032 -101.498
L312.101 -99.792
L310.08 -98.9192
L304.281 -96.624
L304.128 -96.5628
L298.176 -94.2965
L295.733 -93.456
L292.224 -92.2147
L286.272 -90.3496
L286.065 -90.288
L280.32 -88.504
L275.165 -87.12
L274.368 -86.8909
L268.416 -85.3024
L262.51 -83.952
L262.464 -83.9404
L256.512 -82.5466
L250.56 -81.3543
L247.396 -80.784
L244.608 -80.2237
L238.656 -79.1571
L232.704 -78.2378
L228.138 -77.616
L226.752 -77.3996
L220.8 -76.5661
L214.848 -75.8549
L208.896 -75.2465
L202.944 -74.7272
L199.211 -74.448
L196.992 -74.2513
L191.04 -73.807
L185.088 -73.4496
L179.136 -73.1714
L173.184 -72.9669
L167.232 -72.8325
L161.28 -72.7658
L155.328 -72.7658
L149.376 -72.8325
L143.424 -72.9669
L137.472 -73.1714
L131.52 -73.4496
L125.568 -73.807
L119.616 -74.2513
L117.397 -74.448
L113.664 -74.7272
L107.712 -75.2465
L101.76 -75.8549
L95.808 -76.5661
L89.856 -77.3996
L88.4703 -77.616
L83.904 -78.2378
L77.952 -79.1571
L72 -80.2237" id="C4_1_5ef90bc840"/>
    </defs>
    <g clip-path="url(#p3d386a08f4)">
     <use style="fill:none;stroke:#000000;stroke-width:1.75;" x="0.0" xlink:href="#C4_0_0f5f5b8b51" y="396.0"/>
    </g>
    <g clip-path="url(#p3d386a08f4)">
     <use style="fill:none;stroke:#000000;stroke-width:1.75;" x="0.0" xlink:href="#C4_1_5ef90bc840" y="396.0"/>
    </g>
   </g>
   <g id="patch_3">
    <path d="
M72 39.6
L518.4 39.6" style="fill:none;"/>
   </g>
   <g id="patch_4">
    <path d="
M518.4 356.4
L518.4 39.6" style="fill:none;"/>
   </g>
   <g id="patch_5">
    <path d="
M72 356.4
L518.4 356.4" style="fill:none;"/>
   </g>
   <g id="patch_6">
    <path d="
M72 356.4
L72 39.6" style="fill:none;"/>
   </g>
   <g id="text_15">
    <!-- contour plot of probabilities -->
    <defs>
     <path d="
M40.4375 19
L49.0781 17.875
Q47.6562 8.9375 41.8125 3.875
Q35.9844 -1.17188 27.4844 -1.17188
Q16.8438 -1.17188 10.375 5.78125
Q3.90625 12.75 3.90625 25.7344
Q3.90625 34.125 6.6875 40.4219
Q9.46875 46.7344 15.1562 49.875
Q20.8438 53.0312 27.5469 53.0312
Q35.9844 53.0312 41.3594 48.75
Q46.7344 44.4844 48.25 36.625
L39.7031 35.2969
Q38.4844 40.5312 35.375 43.1562
Q32.2812 45.7969 27.875 45.7969
Q21.2344 45.7969 17.0781 41.0312
Q12.9375 36.2812 12.9375 25.9844
Q12.9375 15.5312 16.9375 10.7969
Q20.9531 6.0625 27.3906 6.0625
Q32.5625 6.0625 36.0312 9.23438
Q39.5 12.4062 40.4375 19" id="ArialMT-63"/>
     <path d="
M14.7031 0
L6.54688 0
L6.54688 71.5781
L15.3281 71.5781
L15.3281 46.0469
Q20.9062 53.0312 29.5469 53.0312
Q34.3281 53.0312 38.5938 51.0938
Q42.875 49.1719 45.625 45.6719
Q48.3906 42.1875 49.9531 37.25
Q51.5156 32.3281 51.5156 26.7031
Q51.5156 13.375 44.9219 6.09375
Q38.3281 -1.17188 29.1094 -1.17188
Q19.9219 -1.17188 14.7031 6.5
z

M14.5938 26.3125
Q14.5938 17 17.1406 12.8438
Q21.2969 6.0625 28.375 6.0625
Q34.125 6.0625 38.3281 11.0625
Q42.5312 16.0625 42.5312 25.9844
Q42.5312 36.1406 38.5 40.9688
Q34.4688 45.7969 28.7656 45.7969
Q23 45.7969 18.7969 40.7969
Q14.5938 35.7969 14.5938 26.3125" id="ArialMT-62"/>
     <path d="
M40.4375 6.39062
Q35.5469 2.25 31.0312 0.53125
Q26.5156 -1.17188 21.3438 -1.17188
Q12.7969 -1.17188 8.20312 3
Q3.60938 7.17188 3.60938 13.6719
Q3.60938 17.4844 5.34375 20.625
Q7.07812 23.7812 9.89062 25.6875
Q12.7031 27.5938 16.2188 28.5625
Q18.7969 29.25 24.0312 29.8906
Q34.6719 31.1562 39.7031 32.9062
Q39.75 34.7188 39.75 35.2031
Q39.75 40.5781 37.25 42.7812
Q33.8906 45.75 27.25 45.75
Q21.0469 45.75 18.0938 43.5781
Q15.1406 41.4062 13.7188 35.8906
L5.125 37.0625
Q6.29688 42.5781 8.98438 45.9688
Q11.6719 49.3594 16.75 51.1875
Q21.8281 53.0312 28.5156 53.0312
Q35.1562 53.0312 39.2969 51.4688
Q43.4531 49.9062 45.4062 47.5312
Q47.3594 45.1719 48.1406 41.5469
Q48.5781 39.3125 48.5781 33.4531
L48.5781 21.7344
Q48.5781 9.46875 49.1406 6.21875
Q49.7031 2.98438 51.375 0
L42.1875 0
Q40.8281 2.73438 40.4375 6.39062
M39.7031 26.0312
Q34.9062 24.0781 25.3438 22.7031
Q19.9219 21.9219 17.6719 20.9375
Q15.4375 19.9688 14.2031 18.0938
Q12.9844 16.2188 12.9844 13.9219
Q12.9844 10.4062 15.6406 8.0625
Q18.3125 5.71875 23.4375 5.71875
Q28.5156 5.71875 32.4688 7.9375
Q36.4219 10.1562 38.2812 14.0156
Q39.7031 17 39.7031 22.7969
z
" id="ArialMT-61"/>
     <path d="
M8.6875 0
L8.6875 45.0156
L0.921875 45.0156
L0.921875 51.8594
L8.6875 51.8594
L8.6875 57.375
Q8.6875 62.5938 9.625 65.1406
Q10.8906 68.5625 14.0781 70.6719
Q17.2812 72.7969 23.0469 72.7969
Q26.7656 72.7969 31.25 71.9219
L29.9375 64.2656
Q27.2031 64.75 24.75 64.75
Q20.75 64.75 19.0938 63.0312
Q17.4375 61.3281 17.4375 56.6406
L17.4375 51.8594
L27.5469 51.8594
L27.5469 45.0156
L17.4375 45.0156
L17.4375 0
z
" id="ArialMT-66"/>
     <path d="
M42.0938 16.7031
L51.1719 15.5781
Q49.0312 7.625 43.2188 3.21875
Q37.4062 -1.17188 28.375 -1.17188
Q17 -1.17188 10.3281 5.82812
Q3.65625 12.8438 3.65625 25.4844
Q3.65625 38.5781 10.3906 45.7969
Q17.1406 53.0312 27.875 53.0312
Q38.2812 53.0312 44.875 45.9531
Q51.4688 38.875 51.4688 26.0312
Q51.4688 25.25 51.4219 23.6875
L12.75 23.6875
Q13.2344 15.1406 17.5781 10.5938
Q21.9219 6.0625 28.4219 6.0625
Q33.25 6.0625 36.6719 8.59375
Q40.0938 11.1406 42.0938 16.7031
M13.2344 30.9062
L42.1875 30.9062
Q41.6094 37.4531 38.875 40.7188
Q34.6719 45.7969 27.9844 45.7969
Q21.9219 45.7969 17.7969 41.75
Q13.6719 37.7031 13.2344 30.9062" id="ArialMT-65"/>
     <path d="
M25.7812 7.85938
L27.0469 0.09375
Q23.3438 -0.6875 20.4062 -0.6875
Q15.625 -0.6875 12.9844 0.828125
Q10.3594 2.34375 9.28125 4.8125
Q8.20312 7.28125 8.20312 15.1875
L8.20312 45.0156
L1.76562 45.0156
L1.76562 51.8594
L8.20312 51.8594
L8.20312 64.7031
L16.9375 69.9688
L16.9375 51.8594
L25.7812 51.8594
L25.7812 45.0156
L16.9375 45.0156
L16.9375 14.7031
Q16.9375 10.9375 17.4062 9.85938
Q17.875 8.79688 18.9219 8.15625
Q19.9688 7.51562 21.9219 7.51562
Q23.3906 7.51562 25.7812 7.85938" id="ArialMT-74"/>
     <path d="
M40.5781 0
L40.5781 7.625
Q34.5156 -1.17188 24.125 -1.17188
Q19.5312 -1.17188 15.5469 0.578125
Q11.5781 2.34375 9.64062 5
Q7.71875 7.67188 6.9375 11.5312
Q6.39062 14.1094 6.39062 19.7344
L6.39062 51.8594
L15.1875 51.8594
L15.1875 23.0938
Q15.1875 16.2188 15.7188 13.8125
Q16.5469 10.3594 19.2344 8.375
Q21.9219 6.39062 25.875 6.39062
Q29.8281 6.39062 33.2969 8.42188
Q36.7656 10.4531 38.2031 13.9375
Q39.6562 17.4375 39.6562 24.0781
L39.6562 51.8594
L48.4375 51.8594
L48.4375 0
z
" id="ArialMT-75"/>
     <path d="
M6.64062 61.4688
L6.64062 71.5781
L15.4375 71.5781
L15.4375 61.4688
z

M6.64062 0
L6.64062 51.8594
L15.4375 51.8594
L15.4375 0
z
" id="ArialMT-69"/>
     <path d="
M6.59375 -19.875
L6.59375 51.8594
L14.5938 51.8594
L14.5938 45.125
Q17.4375 49.0781 21 51.0469
Q24.5625 53.0312 29.6406 53.0312
Q36.2812 53.0312 41.3594 49.6094
Q46.4375 46.1875 49.0156 39.9531
Q51.6094 33.7344 51.6094 26.3125
Q51.6094 18.3594 48.75 11.9844
Q45.9062 5.60938 40.4531 2.21875
Q35.0156 -1.17188 29 -1.17188
Q24.6094 -1.17188 21.1094 0.6875
Q17.625 2.54688 15.375 5.375
L15.375 -19.875
z

M14.5469 25.6406
Q14.5469 15.625 18.5938 10.8438
Q22.6562 6.0625 28.4219 6.0625
Q34.2812 6.0625 38.4531 11.0156
Q42.625 15.9688 42.625 26.375
Q42.625 36.2812 38.5469 41.2031
Q34.4688 46.1406 28.8125 46.1406
Q23.1875 46.1406 18.8594 40.8906
Q14.5469 35.6406 14.5469 25.6406" id="ArialMT-70"/>
     <path d="
M6.5 0
L6.5 51.8594
L14.4062 51.8594
L14.4062 44
Q17.4375 49.5156 20 51.2656
Q22.5625 53.0312 25.6406 53.0312
Q30.0781 53.0312 34.6719 50.2031
L31.6406 42.0469
Q28.4219 43.9531 25.2031 43.9531
Q22.3125 43.9531 20.0156 42.2188
Q17.7188 40.4844 16.75 37.4062
Q15.2812 32.7188 15.2812 27.1562
L15.2812 0
z
" id="ArialMT-72"/>
     <path d="
M3.07812 15.4844
L11.7656 16.8438
Q12.5 11.625 15.8438 8.84375
Q19.1875 6.0625 25.2031 6.0625
Q31.25 6.0625 34.1719 8.51562
Q37.1094 10.9844 37.1094 14.3125
Q37.1094 17.2812 34.5156 19
Q32.7188 20.1719 25.5312 21.9688
Q15.875 24.4219 12.1406 26.2031
Q8.40625 27.9844 6.46875 31.125
Q4.54688 34.2812 4.54688 38.0938
Q4.54688 41.5469 6.125 44.5
Q7.71875 47.4688 10.4531 49.4219
Q12.5 50.9219 16.0312 51.9688
Q19.5781 53.0312 23.6406 53.0312
Q29.7344 53.0312 34.3438 51.2656
Q38.9688 49.5156 41.1562 46.5
Q43.3594 43.5 44.1875 38.4844
L35.5938 37.3125
Q35.0156 41.3125 32.2031 43.5469
Q29.3906 45.7969 24.2656 45.7969
Q18.2188 45.7969 15.625 43.7969
Q13.0312 41.7969 13.0312 39.1094
Q13.0312 37.4062 14.1094 36.0312
Q15.1875 34.625 17.4844 33.6875
Q18.7969 33.2031 25.25 31.4531
Q34.5781 28.9531 38.25 27.3594
Q41.9375 25.7812 44.0312 22.75
Q46.1406 19.7344 46.1406 15.2344
Q46.1406 10.8438 43.5781 6.95312
Q41.0156 3.07812 36.1719 0.953125
Q31.3438 -1.17188 25.25 -1.17188
Q15.1406 -1.17188 9.84375 3.03125
Q4.54688 7.23438 3.07812 15.4844" id="ArialMT-73"/>
     <path d="
M6.39062 0
L6.39062 71.5781
L15.1875 71.5781
L15.1875 0
z
" id="ArialMT-6c"/>
     <path d="
M3.32812 25.9219
Q3.32812 40.3281 11.3281 47.2656
Q18.0156 53.0312 27.6406 53.0312
Q38.3281 53.0312 45.1094 46.0156
Q51.9062 39.0156 51.9062 26.6562
Q51.9062 16.6562 48.9062 10.9062
Q45.9062 5.17188 40.1562 2
Q34.4219 -1.17188 27.6406 -1.17188
Q16.75 -1.17188 10.0312 5.8125
Q3.32812 12.7969 3.32812 25.9219
M12.3594 25.9219
Q12.3594 15.9688 16.7031 11.0156
Q21.0469 6.0625 27.6406 6.0625
Q34.1875 6.0625 38.5312 11.0312
Q42.875 16.0156 42.875 26.2188
Q42.875 35.8438 38.5 40.7969
Q34.125 45.75 27.6406 45.75
Q21.0469 45.75 16.7031 40.8125
Q12.3594 35.8906 12.3594 25.9219" id="ArialMT-6f"/>
     <path d="
M6.59375 0
L6.59375 51.8594
L14.5 51.8594
L14.5 44.4844
Q20.2188 53.0312 31 53.0312
Q35.6875 53.0312 39.625 51.3438
Q43.5625 49.6562 45.5156 46.9219
Q47.4688 44.1875 48.25 40.4375
Q48.7344 37.9844 48.7344 31.8906
L48.7344 0
L39.9375 0
L39.9375 31.5469
Q39.9375 36.9219 38.9062 39.5781
Q37.8906 42.2344 35.2812 43.8125
Q32.6719 45.4062 29.1562 45.4062
Q23.5312 45.4062 19.4531 41.8438
Q15.375 38.2812 15.375 28.3281
L15.375 0
z
" id="ArialMT-6e"/>
     <path id="ArialMT-20"/>
    </defs>
    <g style="fill:#262626;" transform="translate(223.726875 34.6)scale(0.12 -0.12)">
     <use xlink:href="#ArialMT-63"/>
     <use x="50.0" xlink:href="#ArialMT-6f"/>
     <use x="105.615234375" xlink:href="#ArialMT-6e"/>
     <use x="161.23046875" xlink:href="#ArialMT-74"/>
     <use x="189.013671875" xlink:href="#ArialMT-6f"/>
     <use x="244.62890625" xlink:href="#ArialMT-75"/>
     <use x="300.244140625" xlink:href="#ArialMT-72"/>
     <use x="333.544921875" xlink:href="#ArialMT-20"/>
     <use x="361.328125" xlink:href="#ArialMT-70"/>
     <use x="416.943359375" xlink:href="#ArialMT-6c"/>
     <use x="439.16015625" xlink:href="#ArialMT-6f"/>
     <use x="494.775390625" xlink:href="#ArialMT-74"/>
     <use x="522.55859375" xlink:href="#ArialMT-20"/>
     <use x="550.341796875" xlink:href="#ArialMT-6f"/>
     <use x="605.95703125" xlink:href="#ArialMT-66"/>
     <use x="633.740234375" xlink:href="#ArialMT-20"/>
     <use x="661.5234375" xlink:href="#ArialMT-70"/>
     <use x="717.138671875" xlink:href="#ArialMT-72"/>
     <use x="750.439453125" xlink:href="#ArialMT-6f"/>
     <use x="806.0546875" xlink:href="#ArialMT-62"/>
     <use x="861.669921875" xlink:href="#ArialMT-61"/>
     <use x="917.28515625" xlink:href="#ArialMT-62"/>
     <use x="972.900390625" xlink:href="#ArialMT-69"/>
     <use x="995.1171875" xlink:href="#ArialMT-6c"/>
     <use x="1017.33398438" xlink:href="#ArialMT-69"/>
     <use x="1039.55078125" xlink:href="#ArialMT-74"/>
     <use x="1067.33398438" xlink:href="#ArialMT-69"/>
     <use x="1089.55078125" xlink:href="#ArialMT-65"/>
     <use x="1145.16601562" xlink:href="#ArialMT-73"/>
    </g>
   </g>
  </g>
 </g>
 <defs>
  <clipPath id="p3d386a08f4">
   <rect height="316.8" width="446.4" x="72.0" y="39.6"/>
  </clipPath>
 </defs>
</svg>
